ExploreSans_Normal.ufo
<glyph name="exclam" format="2">
  <advance width="255"/>
  <unicode hex="0021"/>
  <outline>
    <contour>
      <point x="79" y="716" type="line"/>
      <point x="179" y="716" type="line"/>
      <point x="166" y="207" type="line"/>
      <point x="88" y="207" type="line"/>
    </contour>
    <contour>
      <point x="64" y="55" type="qcurve" smooth="yes"/>
      <point x="64" y="80"/>
      <point x="98" y="119"/>
      <point x="156" y="119"/>
      <point x="190" y="80"/>
      <point x="190" y="55" type="qcurve" smooth="yes"/>
      <point x="190" y="29"/>
      <point x="156" y="-7"/>
      <point x="98" y="-7"/>
      <point x="64" y="29"/>
    </contour>
  </outline>
</glyph>
<glyph name="quotedbl" format="2">
  <advance width="329"/>
  <unicode hex="0022"/>
  <outline>
    <contour>
      <point x="42" y="772" type="line"/>
      <point x="120" y="772" type="line"/>
      <point x="111" y="520" type="line"/>
      <point x="51" y="520" type="line"/>
    </contour>
    <contour>
      <point x="209" y="772" type="line"/>
      <point x="287" y="772" type="line"/>
      <point x="278" y="520" type="line"/>
      <point x="218" y="520" type="line"/>
    </contour>
  </outline>
</glyph>
<glyph name="numbersign" format="2">
  <advance width="634"/>
  <unicode hex="0023"/>
  <outline>
    <contour>
      <point x="269" y="724" type="line"/>
      <point x="352" y="724" type="line"/>
      <point x="294" y="520" type="line"/>
      <point x="429" y="520" type="line"/>
      <point x="487" y="724" type="line"/>
      <point x="570" y="724" type="line"/>
      <point x="512" y="520" type="line"/>
      <point x="586" y="520" type="line"/>
      <point x="586" y="452" type="line"/>
      <point x="493" y="452" type="line"/>
      <point x="443" y="274" type="line"/>
      <point x="586" y="274" type="line"/>
      <point x="586" y="206" type="line"/>
      <point x="423" y="206" type="line"/>
      <point x="365" y="0" type="line"/>
      <point x="282" y="0" type="line"/>
      <point x="340" y="206" type="line"/>
      <point x="205" y="206" type="line"/>
      <point x="147" y="0" type="line"/>
      <point x="64" y="0" type="line"/>
      <point x="122" y="206" type="line"/>
      <point x="48" y="206" type="line"/>
      <point x="48" y="274" type="line"/>
      <point x="142" y="274" type="line"/>
      <point x="192" y="452" type="line"/>
      <point x="48" y="452" type="line"/>
      <point x="48" y="520" type="line"/>
      <point x="211" y="520" type="line"/>
    </contour>
    <contour>
      <point x="360" y="274" type="line"/>
      <point x="410" y="452" type="line"/>
      <point x="275" y="452" type="line"/>
      <point x="225" y="274" type="line"/>
    </contour>
  </outline>
</glyph>
<glyph name="dollar" format="2">
  <advance width="594"/>
  <unicode hex="0024"/>
  <outline>
    <contour>
      <point x="274" y="863" type="line"/>
      <point x="338" y="863" type="line"/>
      <point x="338" y="-139" type="line"/>
      <point x="274" y="-139" type="line"/>
    </contour>
    <contour>
      <point x="317" y="716" type="qcurve" smooth="yes"/>
      <point x="435" y="716"/>
      <point x="536" y="633" type="qcurve"/>
      <point x="502" y="585" type="line"/>
      <point x="417" y="652"/>
      <point x="316" y="652" type="qcurve" smooth="yes"/>
      <point x="148" y="652"/>
      <point x="148" y="529" type="qcurve" smooth="yes"/>
      <point x="148" y="473"/>
      <point x="210" y="412"/>
      <point x="291" y="394" type="qcurve" smooth="yes"/>
      <point x="375" y="375" type="line" smooth="yes"/>
      <point x="548" y="336"/>
      <point x="548" y="184" type="qcurve" smooth="yes"/>
      <point x="548" y="169"/>
      <point x="543" y="135"/>
      <point x="514" y="74"/>
      <point x="465" y="28"/>
      <point x="365" y="-8"/>
      <point x="298" y="-8" type="qcurve" smooth="yes"/>
      <point x="221" y="-8"/>
      <point x="99" y="27"/>
      <point x="28" y="77" type="qcurve"/>
      <point x="68" y="133" type="line"/>
      <point x="167" y="56"/>
      <point x="302" y="56" type="qcurve" smooth="yes"/>
      <point x="470" y="56"/>
      <point x="470" y="184" type="qcurve" smooth="yes"/>
      <point x="470" y="242"/>
      <point x="401" y="301"/>
      <point x="318" y="319" type="qcurve" smooth="yes"/>
      <point x="250" y="333" type="line" smooth="yes"/>
      <point x="68" y="371"/>
      <point x="68" y="529" type="qcurve" smooth="yes"/>
      <point x="68" y="549"/>
      <point x="75" y="589"/>
      <point x="106" y="645"/>
      <point x="156" y="686"/>
      <point x="253" y="716"/>
    </contour>
  </outline>
</glyph>
<glyph name="percent" format="2">
  <advance width="784"/>
  <unicode hex="0025"/>
  <outline>
    <contour>
      <point x="144" y="716"/>
      <point x="278" y="716"/>
      <point x="360" y="625"/>
      <point x="360" y="477"/>
      <point x="279" y="385"/>
      <point x="143" y="385"/>
      <point x="62" y="477"/>
      <point x="62" y="625"/>
    </contour>
    <contour>
      <point x="210" y="645" type="qcurve" smooth="yes"/>
      <point x="142" y="645"/>
      <point x="142" y="549" type="qcurve" smooth="yes"/>
      <point x="142" y="457"/>
      <point x="280" y="457"/>
      <point x="280" y="550" type="qcurve" smooth="yes"/>
      <point x="280" y="565"/>
      <point x="275" y="592"/>
      <point x="262" y="625"/>
      <point x="232" y="645"/>
    </contour>
    <contour>
      <point x="548" y="708" type="line"/>
      <point x="634" y="708" type="line"/>
      <point x="221" y="0" type="line"/>
      <point x="134" y="0" type="line"/>
    </contour>
    <contour>
      <point x="490" y="323"/>
      <point x="624" y="323"/>
      <point x="706" y="232"/>
      <point x="706" y="84"/>
      <point x="624" y="-7"/>
      <point x="490" y="-7"/>
      <point x="408" y="84"/>
      <point x="408" y="232"/>
    </contour>
    <contour>
      <point x="556" y="253" type="qcurve" smooth="yes"/>
      <point x="488" y="253"/>
      <point x="488" y="156" type="qcurve" smooth="yes"/>
      <point x="488" y="64"/>
      <point x="626" y="64"/>
      <point x="626" y="156" type="qcurve" smooth="yes"/>
      <point x="626" y="170"/>
      <point x="622" y="197"/>
      <point x="609" y="232"/>
      <point x="578" y="253"/>
    </contour>
  </outline>
</glyph>
<glyph name="ampersand" format="2">
  <advance width="632"/>
  <unicode hex="0026"/>
  <outline>
    <contour>
      <point x="430" y="341" type="line"/>
      <point x="230" y="341" type="line"/>
      <point x="116" y="288"/>
      <point x="116" y="190" type="qcurve" smooth="yes"/>
      <point x="116" y="165"/>
      <point x="127" y="122"/>
      <point x="154" y="80"/>
      <point x="209" y="56"/>
      <point x="248" y="56" type="qcurve" smooth="yes"/>
      <point x="357" y="56"/>
      <point x="430" y="136" type="qcurve"/>
    </contour>
    <contour>
      <point x="289" y="716" type="qcurve" smooth="yes"/>
      <point x="352" y="716"/>
      <point x="444" y="682"/>
      <point x="504" y="646" type="qcurve"/>
      <point x="475" y="594" type="line"/>
      <point x="382" y="656"/>
      <point x="293" y="656" type="qcurve" smooth="yes"/>
      <point x="146" y="656"/>
      <point x="146" y="535" type="qcurve" smooth="yes"/>
      <point x="146" y="451"/>
      <point x="224" y="405" type="qcurve"/>
      <point x="607" y="405" type="line"/>
      <point x="607" y="341" type="line"/>
      <point x="510" y="341" type="line"/>
      <point x="510" y="97" type="line"/>
      <point x="587" y="0" type="line"/>
      <point x="491" y="0" type="line"/>
      <point x="438" y="79" type="line"/>
      <point x="351" y="-8"/>
      <point x="234" y="-8" type="qcurve" smooth="yes"/>
      <point x="197" y="-8"/>
      <point x="134" y="7"/>
      <point x="70" y="46"/>
      <point x="33" y="126"/>
      <point x="33" y="183" type="qcurve" smooth="yes"/>
      <point x="33" y="308"/>
      <point x="171" y="372" type="qcurve"/>
      <point x="74" y="436"/>
      <point x="74" y="542" type="qcurve" smooth="yes"/>
      <point x="74" y="611"/>
      <point x="186" y="716"/>
    </contour>
  </outline>
</glyph>
<glyph name="quotesingle" format="2">
  <advance width="158"/>
  <unicode hex="0027"/>
  <outline>
    <contour>
      <point x="40" y="772" type="line"/>
      <point x="118" y="772" type="line"/>
      <point x="109" y="515" type="line"/>
      <point x="49" y="515" type="line"/>
    </contour>
  </outline>
</glyph>
<glyph name="parenleft" format="2">
  <advance width="299"/>
  <unicode hex="0028"/>
  <outline>
    <contour>
      <point x="197" y="800" type="qcurve"/>
      <point x="287" y="800" type="line"/>
      <point x="265" y="784"/>
      <point x="217" y="732"/>
      <point x="147" y="629"/>
      <point x="102" y="465"/>
      <point x="102" y="368" type="qcurve" smooth="yes"/>
      <point x="102" y="102"/>
      <point x="286" y="-64" type="qcurve"/>
      <point x="191" y="-64" type="line"/>
      <point x="111" y="1"/>
      <point x="24" y="235"/>
      <point x="24" y="368" type="qcurve" smooth="yes"/>
      <point x="24" y="660"/>
    </contour>
  </outline>
</glyph>
<glyph name="parenright" format="2">
  <advance width="300"/>
  <unicode hex="0029"/>
  <outline>
    <contour>
      <point x="13" y="800" type="qcurve"/>
      <point x="108" y="800" type="line"/>
      <point x="129" y="783"/>
      <point x="173" y="731"/>
      <point x="236" y="629"/>
      <point x="276" y="467"/>
      <point x="276" y="371" type="qcurve" smooth="yes"/>
      <point x="276" y="76"/>
      <point x="102" y="-64" type="qcurve"/>
      <point x="12" y="-64" type="line"/>
      <point x="39" y="-44"/>
      <point x="95" y="22"/>
      <point x="157" y="126"/>
      <point x="196" y="282"/>
      <point x="196" y="371" type="qcurve" smooth="yes"/>
      <point x="196" y="648"/>
    </contour>
  </outline>
</glyph>
<glyph name="plus" format="2">
  <advance width="597"/>
  <unicode hex="002B"/>
  <outline>
    <contour>
      <point x="252" y="479" type="line"/>
      <point x="332" y="479" type="line"/>
      <point x="332" y="307" type="line"/>
      <point x="507" y="307" type="line"/>
      <point x="507" y="227" type="line"/>
      <point x="332" y="227" type="line"/>
      <point x="332" y="54" type="line"/>
      <point x="252" y="54" type="line"/>
      <point x="252" y="227" type="line"/>
      <point x="81" y="227" type="line"/>
      <point x="81" y="307" type="line"/>
      <point x="252" y="307" type="line"/>
    </contour>
  </outline>
</glyph>
<glyph name="comma" format="2">
  <advance width="165"/>
  <unicode hex="002C"/>
  <outline>
    <contour>
      <point x="38" y="78" type="line"/>
      <point x="134" y="78" type="line"/>
      <point x="86" y="-149" type="line"/>
      <point x="39" y="-149" type="line"/>
    </contour>
  </outline>
</glyph>
<glyph name="hyphen" format="2">
  <advance width="432"/>
  <unicode hex="002D"/>
  <outline>
    <contour>
      <point x="64" y="307" type="line"/>
      <point x="368" y="307" type="line"/>
      <point x="368" y="227" type="line"/>
      <point x="64" y="227" type="line"/>
    </contour>
  </outline>
</glyph>
<glyph name="period" format="2">
  <advance width="190"/>
  <unicode hex="002E"/>
  <outline>
    <contour>
      <point x="65" y="118"/>
      <point x="123" y="118"/>
      <point x="158" y="81"/>
      <point x="158" y="29"/>
      <point x="123" y="-8"/>
      <point x="65" y="-8"/>
      <point x="32" y="30"/>
      <point x="32" y="80"/>
    </contour>
  </outline>
</glyph>
<glyph name="slash" format="2">
  <advance width="374"/>
  <unicode hex="002F"/>
  <outline>
    <contour>
      <point x="319" y="772" type="line"/>
      <point x="398" y="772" type="line"/>
      <point x="55" y="-34" type="line"/>
      <point x="-24" y="-34" type="line"/>
    </contour>
  </outline>
</glyph>
<glyph name="zero" format="2">
  <advance width="550"/>
  <unicode hex="0030"/>
  <outline>
    <contour>
      <point x="273" y="651" type="qcurve" smooth="yes"/>
      <point x="238" y="651"/>
      <point x="185" y="626"/>
      <point x="137" y="565"/>
      <point x="112" y="445"/>
      <point x="112" y="358" type="qcurve" smooth="yes"/>
      <point x="112" y="57"/>
      <point x="272" y="57" type="qcurve" smooth="yes"/>
      <point x="436" y="57"/>
      <point x="436" y="360" type="qcurve" smooth="yes"/>
      <point x="436" y="451"/>
      <point x="407" y="574"/>
      <point x="355" y="630"/>
      <point x="304" y="651"/>
    </contour>
    <contour>
      <point x="273" y="716" type="qcurve" smooth="yes"/>
      <point x="516" y="716"/>
      <point x="516" y="360" type="qcurve" smooth="yes"/>
      <point x="516" y="288"/>
      <point x="494" y="167"/>
      <point x="443" y="56"/>
      <point x="343" y="-7"/>
      <point x="272" y="-7" type="qcurve" smooth="yes"/>
      <point x="32" y="-7"/>
      <point x="32" y="357" type="qcurve" smooth="yes"/>
      <point x="32" y="716"/>
    </contour>
  </outline>
</glyph>
<glyph name="one" format="2">
  <advance width="550"/>
  <unicode hex="0031"/>
  <outline>
    <contour>
      <point x="262" y="708" type="line"/>
      <point x="334" y="708" type="line"/>
      <point x="334" y="69" type="line"/>
      <point x="484" y="69" type="line"/>
      <point x="484" y="0" type="line"/>
      <point x="74" y="0" type="line"/>
      <point x="74" y="69" type="line"/>
      <point x="254" y="69" type="line"/>
      <point x="254" y="626" type="line"/>
      <point x="56" y="530" type="line"/>
      <point x="56" y="613" type="line"/>
    </contour>
  </outline>
</glyph>
<glyph name="two" format="2">
  <advance width="550"/>
  <unicode hex="0032"/>
  <outline>
    <contour>
      <point x="55" y="634" type="line"/>
      <point x="143" y="716"/>
      <point x="255" y="716" type="qcurve" smooth="yes"/>
      <point x="355" y="716"/>
      <point x="479" y="608"/>
      <point x="479" y="521" type="qcurve" smooth="yes"/>
      <point x="479" y="412"/>
      <point x="362" y="295" type="qcurve" smooth="yes"/>
      <point x="352" y="285"/>
      <point x="157" y="73"/>
      <point x="157" y="72" type="qcurve"/>
      <point x="484" y="72" type="line"/>
      <point x="484" y="0" type="line"/>
      <point x="62" y="0" type="line"/>
      <point x="62" y="71" type="line"/>
      <point x="300" y="331" type="line" smooth="yes"/>
      <point x="363" y="401"/>
      <point x="399" y="471"/>
      <point x="399" y="524" type="qcurve" smooth="yes"/>
      <point x="399" y="581"/>
      <point x="319" y="652"/>
      <point x="254" y="652" type="qcurve" smooth="yes"/>
      <point x="162" y="652"/>
      <point x="88" y="578" type="qcurve"/>
    </contour>
  </outline>
</glyph>
<glyph name="three" format="2">
  <advance width="550"/>
  <unicode hex="0033"/>
  <outline>
    <contour>
      <point x="72" y="708" type="line"/>
      <point x="472" y="708" type="line"/>
      <point x="472" y="645" type="line"/>
      <point x="275" y="430" type="line"/>
      <point x="384" y="428"/>
      <point x="508" y="316"/>
      <point x="508" y="220" type="qcurve" smooth="yes"/>
      <point x="508" y="196"/>
      <point x="501" y="148"/>
      <point x="471" y="79"/>
      <point x="421" y="29"/>
      <point x="325" y="-8"/>
      <point x="261" y="-8" type="qcurve" smooth="yes"/>
      <point x="130" y="-8"/>
      <point x="22" y="82" type="qcurve"/>
      <point x="55" y="138" type="line"/>
      <point x="143" y="56"/>
      <point x="255" y="56" type="qcurve" smooth="yes"/>
      <point x="346" y="56"/>
      <point x="428" y="135"/>
      <point x="428" y="222" type="qcurve" smooth="yes"/>
      <point x="428" y="293"/>
      <point x="344" y="366"/>
      <point x="263" y="366" type="qcurve" smooth="yes"/>
      <point x="195" y="366" type="line"/>
      <point x="187" y="429" type="line"/>
      <point x="380" y="644" type="line"/>
      <point x="72" y="644" type="line"/>
    </contour>
  </outline>
</glyph>
<glyph name="five" format="2">
  <advance width="550"/>
  <unicode hex="0035"/>
  <outline>
    <contour>
      <point x="86" y="708" type="line"/>
      <point x="460" y="708" type="line"/>
      <point x="460" y="637" type="line"/>
      <point x="161" y="637" type="line"/>
      <point x="154" y="374" type="line"/>
      <point x="207" y="450"/>
      <point x="301" y="450" type="qcurve" smooth="yes"/>
      <point x="392" y="450"/>
      <point x="497" y="330"/>
      <point x="497" y="225" type="qcurve" smooth="yes"/>
      <point x="497" y="117"/>
      <point x="366" y="-8"/>
      <point x="253" y="-8" type="qcurve" smooth="yes"/>
      <point x="134" y="-8"/>
      <point x="39" y="66" type="qcurve"/>
      <point x="73" y="124" type="line"/>
      <point x="164" y="56"/>
      <point x="253" y="56" type="qcurve" smooth="yes"/>
      <point x="417" y="56"/>
      <point x="417" y="221" type="qcurve" smooth="yes"/>
      <point x="417" y="305"/>
      <point x="347" y="384"/>
      <point x="273" y="384" type="qcurve" smooth="yes"/>
      <point x="208" y="384"/>
      <point x="153" y="334" type="qcurve"/>
      <point x="78" y="334" type="line"/>
    </contour>
  </outline>
</glyph>
<glyph name="six" format="2">
  <advance width="550"/>
  <unicode hex="0036"/>
  <outline>
    <contour>
      <point x="306" y="716" type="qcurve" smooth="yes"/>
      <point x="401" y="716"/>
      <point x="493" y="651" type="qcurve"/>
      <point x="461" y="599" type="line"/>
      <point x="393" y="653"/>
      <point x="307" y="653" type="qcurve" smooth="yes"/>
      <point x="213" y="653"/>
      <point x="124" y="501"/>
      <point x="124" y="339" type="qcurve"/>
      <point x="137" y="386"/>
      <point x="236" y="450"/>
      <point x="295" y="450" type="qcurve" smooth="yes"/>
      <point x="396" y="450"/>
      <point x="510" y="330"/>
      <point x="510" y="223" type="qcurve" smooth="yes"/>
      <point x="510" y="122"/>
      <point x="379" y="-8"/>
      <point x="276" y="-8" type="qcurve" smooth="yes"/>
      <point x="157" y="-8"/>
      <point x="46" y="150"/>
      <point x="46" y="318" type="qcurve" smooth="yes"/>
      <point x="46" y="520"/>
      <point x="174" y="716"/>
    </contour>
    <contour>
      <point x="276" y="384" type="qcurve" smooth="yes"/>
      <point x="203" y="384"/>
      <point x="126" y="306"/>
      <point x="126" y="232" type="qcurve" smooth="yes"/>
      <point x="126" y="140"/>
      <point x="198" y="56"/>
      <point x="276" y="56" type="qcurve" smooth="yes"/>
      <point x="349" y="56"/>
      <point x="430" y="143"/>
      <point x="430" y="223" type="qcurve" smooth="yes"/>
      <point x="430" y="301"/>
      <point x="351" y="384"/>
    </contour>
  </outline>
</glyph>
<glyph name="eight" format="2">
  <advance width="550"/>
  <unicode hex="0038"/>
  <outline>
    <contour>
      <point x="174" y="716"/>
      <point x="374" y="716"/>
      <point x="488" y="611"/>
      <point x="488" y="519" type="qcurve" smooth="yes"/>
      <point x="488" y="461"/>
      <point x="429" y="378"/>
      <point x="382" y="370" type="qcurve"/>
      <point x="438" y="356"/>
      <point x="504" y="262"/>
      <point x="504" y="197" type="qcurve" smooth="yes"/>
      <point x="504" y="103"/>
      <point x="381" y="-7"/>
      <point x="274" y="-7" type="qcurve" smooth="yes"/>
      <point x="168" y="-7"/>
      <point x="46" y="101"/>
      <point x="46" y="195" type="qcurve" smooth="yes"/>
      <point x="46" y="267"/>
      <point x="104" y="347"/>
      <point x="166" y="370" type="qcurve"/>
      <point x="62" y="388"/>
      <point x="62" y="519" type="qcurve" smooth="yes"/>
      <point x="62" y="612"/>
    </contour>
    <contour>
      <point x="274" y="650" type="qcurve" smooth="yes"/>
      <point x="211" y="650"/>
      <point x="142" y="581"/>
      <point x="142" y="519" type="qcurve" smooth="yes"/>
      <point x="142" y="464"/>
      <point x="212" y="402"/>
      <point x="274" y="402" type="qcurve" smooth="yes"/>
      <point x="338" y="402"/>
      <point x="408" y="463"/>
      <point x="408" y="519" type="qcurve" smooth="yes"/>
      <point x="408" y="581"/>
      <point x="338" y="650"/>
    </contour>
    <contour>
      <point x="274" y="336" type="qcurve" smooth="yes"/>
      <point x="206" y="336"/>
      <point x="126" y="261"/>
      <point x="126" y="197" type="qcurve" smooth="yes"/>
      <point x="126" y="57"/>
      <point x="274" y="57" type="qcurve" smooth="yes"/>
      <point x="424" y="57"/>
      <point x="424" y="197" type="qcurve" smooth="yes"/>
      <point x="424" y="262"/>
      <point x="344" y="336"/>
    </contour>
  </outline>
</glyph>
<glyph name="nine" format="2">
  <advance width="550"/>
  <unicode hex="0039"/>
  <outline>
    <contour>
      <point x="281" y="716" type="qcurve" smooth="yes"/>
      <point x="512" y="716"/>
      <point x="512" y="415" type="qcurve" smooth="yes"/>
      <point x="512" y="198"/>
      <point x="384" y="-8"/>
      <point x="249" y="-8" type="qcurve" smooth="yes"/>
      <point x="138" y="-8"/>
      <point x="50" y="49" type="qcurve"/>
      <point x="74" y="108" type="line"/>
      <point x="150" y="56"/>
      <point x="253" y="56" type="qcurve" smooth="yes"/>
      <point x="348" y="56"/>
      <point x="434" y="205"/>
      <point x="434" y="370" type="qcurve"/>
      <point x="384" y="259"/>
      <point x="273" y="259" type="qcurve" smooth="yes"/>
      <point x="169" y="259"/>
      <point x="48" y="379"/>
      <point x="48" y="482" type="qcurve" smooth="yes"/>
      <point x="48" y="591"/>
      <point x="173" y="716"/>
    </contour>
    <contour>
      <point x="278" y="652" type="qcurve" smooth="yes"/>
      <point x="210" y="652"/>
      <point x="128" y="560"/>
      <point x="128" y="482" type="qcurve" smooth="yes"/>
      <point x="128" y="325"/>
      <point x="278" y="325" type="qcurve" smooth="yes"/>
      <point x="349" y="325"/>
      <point x="432" y="410"/>
      <point x="432" y="482" type="qcurve" smooth="yes"/>
      <point x="432" y="565"/>
      <point x="353" y="652"/>
    </contour>
  </outline>
</glyph>
<glyph name="colon" format="2">
  <advance width="181"/>
  <unicode hex="003A"/>
  <outline>
    <contour>
      <point x="90" y="528" type="qcurve" smooth="yes"/>
      <point x="118" y="528"/>
      <point x="154" y="492"/>
      <point x="154" y="438"/>
      <point x="118" y="402"/>
      <point x="90" y="402" type="qcurve" smooth="yes"/>
      <point x="63" y="402"/>
      <point x="28" y="438"/>
      <point x="28" y="492"/>
      <point x="63" y="528"/>
    </contour>
    <contour>
      <point x="63" y="118"/>
      <point x="117" y="118"/>
      <point x="154" y="81"/>
      <point x="154" y="54" type="qcurve" smooth="yes"/>
      <point x="154" y="28"/>
      <point x="118" y="-8"/>
      <point x="62" y="-8"/>
      <point x="28" y="26"/>
      <point x="28" y="82"/>
    </contour>
  </outline>
</glyph>
<glyph name="semicolon" format="2">
  <advance width="181"/>
  <unicode hex="003B"/>
  <outline>
    <contour>
      <point x="63" y="528"/>
      <point x="117" y="528"/>
      <point x="153" y="492"/>
      <point x="153" y="438"/>
      <point x="117" y="402"/>
      <point x="63" y="402"/>
      <point x="27" y="438"/>
      <point x="27" y="492"/>
    </contour>
    <contour>
      <point x="46" y="78" type="line"/>
      <point x="142" y="78" type="line"/>
      <point x="94" y="-149" type="line"/>
      <point x="47" y="-149" type="line"/>
    </contour>
  </outline>
</glyph>
<glyph name="equal" format="2">
  <advance width="597"/>
  <unicode hex="003D"/>
  <outline>
    <contour>
      <point x="74" y="418" type="line"/>
      <point x="500" y="418" type="line"/>
      <point x="500" y="347" type="line"/>
      <point x="74" y="347" type="line"/>
    </contour>
    <contour>
      <point x="74" y="226" type="line"/>
      <point x="500" y="226" type="line"/>
      <point x="500" y="156" type="line"/>
      <point x="74" y="156" type="line"/>
    </contour>
  </outline>
</glyph>
<glyph name="question" format="2">
  <advance width="510"/>
  <unicode hex="003F"/>
  <outline>
    <contour>
      <point x="235" y="732" type="qcurve" smooth="yes"/>
      <point x="248" y="732"/>
      <point x="278" y="729"/>
      <point x="332" y="719"/>
      <point x="378" y="695"/>
      <point x="423" y="658"/>
      <point x="449" y="596"/>
      <point x="449" y="556" type="qcurve" smooth="yes"/>
      <point x="449" y="475"/>
      <point x="392" y="426" type="qcurve" smooth="yes"/>
      <point x="297" y="345"/>
      <point x="258" y="290"/>
      <point x="258" y="232" type="qcurve" smooth="yes"/>
      <point x="258" y="207"/>
      <point x="263" y="185" type="qcurve"/>
      <point x="195" y="177" type="line"/>
      <point x="188" y="208"/>
      <point x="188" y="238" type="qcurve" smooth="yes"/>
      <point x="188" y="303"/>
      <point x="251" y="390"/>
      <point x="324" y="450" type="qcurve" smooth="yes"/>
      <point x="370" y="488"/>
      <point x="370" y="555" type="qcurve" smooth="yes"/>
      <point x="370" y="665"/>
      <point x="235" y="665" type="qcurve" smooth="yes"/>
      <point x="155" y="665"/>
      <point x="75" y="604" type="qcurve"/>
      <point x="44" y="665" type="line"/>
      <point x="136" y="732"/>
    </contour>
    <contour>
      <point x="238" y="119" type="qcurve" smooth="yes"/>
      <point x="267" y="119"/>
      <point x="302" y="80"/>
      <point x="302" y="55" type="qcurve" smooth="yes"/>
      <point x="302" y="29"/>
      <point x="266" y="-7"/>
      <point x="238" y="-7" type="qcurve" smooth="yes"/>
      <point x="209" y="-7"/>
      <point x="176" y="29"/>
      <point x="176" y="81"/>
      <point x="208" y="119"/>
    </contour>
  </outline>
</glyph>
<glyph name="at" format="2">
  <advance width="954"/>
  <unicode hex="0040"/>
  <outline>
    <contour>
      <point x="484" y="800" type="qcurve" smooth="yes"/>
      <point x="666" y="800"/>
      <point x="908" y="571"/>
      <point x="908" y="384" type="qcurve" smooth="yes"/>
      <point x="908" y="227"/>
      <point x="812" y="134" type="qcurve"/>
      <point x="744" y="126" type="line"/>
      <point x="589" y="214" type="line"/>
      <point x="527" y="128"/>
      <point x="439" y="128" type="qcurve" smooth="yes"/>
      <point x="356" y="128"/>
      <point x="262" y="236"/>
      <point x="262" y="320" type="qcurve" smooth="yes"/>
      <point x="262" y="436"/>
      <point x="397" y="580"/>
      <point x="489" y="580" type="qcurve" smooth="yes"/>
      <point x="525" y="580"/>
      <point x="593" y="542"/>
      <point x="610" y="510" type="qcurve"/>
      <point x="632" y="570" type="line"/>
      <point x="693" y="570" type="line"/>
      <point x="651" y="266" type="line"/>
      <point x="770" y="196" type="line"/>
      <point x="832" y="284"/>
      <point x="832" y="388" type="qcurve" smooth="yes"/>
      <point x="832" y="551"/>
      <point x="629" y="731"/>
      <point x="484" y="731" type="qcurve" smooth="yes"/>
      <point x="415" y="731"/>
      <point x="287" y="685"/>
      <point x="184" y="597"/>
      <point x="122" y="453"/>
      <point x="122" y="364" type="qcurve" smooth="yes"/>
      <point x="122" y="188"/>
      <point x="333" y="-27"/>
      <point x="496" y="-27" type="qcurve" smooth="yes"/>
      <point x="552" y="-27"/>
      <point x="679" y="-8"/>
      <point x="699" y="0" type="qcurve"/>
      <point x="699" y="-71" type="line"/>
      <point x="582" y="-96"/>
      <point x="492" y="-96" type="qcurve" smooth="yes"/>
      <point x="422" y="-96"/>
      <point x="294" y="-62"/>
      <point x="179" y="11"/>
      <point x="95" y="117"/>
      <point x="46" y="271"/>
      <point x="46" y="364" type="qcurve" smooth="yes"/>
      <point x="46" y="451"/>
      <point x="98" y="597"/>
      <point x="184" y="697"/>
      <point x="298" y="767"/>
      <point x="421" y="800"/>
    </contour>
    <contour>
      <point x="485" y="510" type="qcurve" smooth="yes"/>
      <point x="413" y="510"/>
      <point x="340" y="402"/>
      <point x="340" y="325" type="qcurve" smooth="yes"/>
      <point x="340" y="309"/>
      <point x="347" y="275"/>
      <point x="367" y="228"/>
      <point x="419" y="198"/>
      <point x="457" y="198" type="qcurve" smooth="yes"/>
      <point x="478" y="198"/>
      <point x="516" y="211"/>
      <point x="557" y="242"/>
      <point x="587" y="310"/>
      <point x="592" y="358" type="qcurve" smooth="yes"/>
      <point x="601" y="438" type="line"/>
      <point x="586" y="473"/>
      <point x="524" y="510"/>
    </contour>
  </outline>
</glyph>
<glyph name="A" format="2">
  <advance width="619"/>
  <unicode hex="0041"/>
  <outline>
    <contour>
      <point x="273" y="708" type="line"/>
      <point x="371" y="708" type="line"/>
      <point x="598" y="0" type="line"/>
      <point x="521" y="0" type="line"/>
      <point x="465" y="182" type="line"/>
      <point x="160" y="182" type="line"/>
      <point x="98" y="0" type="line"/>
      <point x="20" y="0" type="line"/>
    </contour>
    <contour>
      <point x="319" y="648" type="line"/>
      <point x="182" y="246" type="line"/>
      <point x="446" y="246" type="line"/>
      <point x="322" y="648" type="line"/>
    </contour>
  </outline>
</glyph>
<glyph name="B" format="2">
  <advance width="614"/>
  <unicode hex="0042"/>
  <outline>
    <contour>
      <point x="80" y="708" type="line"/>
      <point x="329" y="708" type="line" smooth="yes"/>
      <point x="428" y="708"/>
      <point x="542" y="614"/>
      <point x="542" y="534" type="qcurve" smooth="yes"/>
      <point x="542" y="425"/>
      <point x="438" y="378" type="qcurve"/>
      <point x="501" y="362"/>
      <point x="574" y="265"/>
      <point x="574" y="197" type="qcurve" smooth="yes"/>
      <point x="574" y="105"/>
      <point x="455" y="0"/>
      <point x="350" y="0" type="qcurve" smooth="yes"/>
      <point x="80" y="0" type="line"/>
    </contour>
    <contour>
      <point x="156" y="644" type="line"/>
      <point x="156" y="412" type="line"/>
      <point x="333" y="412" type="line" smooth="yes"/>
      <point x="400" y="412"/>
      <point x="464" y="469"/>
      <point x="464" y="530" type="qcurve" smooth="yes"/>
      <point x="464" y="644"/>
      <point x="327" y="644" type="qcurve" smooth="yes"/>
    </contour>
    <contour>
      <point x="156" y="344" type="line"/>
      <point x="156" y="64" type="line"/>
      <point x="350" y="64" type="line" smooth="yes"/>
      <point x="418" y="64"/>
      <point x="494" y="137"/>
      <point x="494" y="202" type="qcurve" smooth="yes"/>
      <point x="494" y="271"/>
      <point x="409" y="344"/>
      <point x="327" y="344" type="qcurve" smooth="yes"/>
    </contour>
  </outline>
</glyph>
<glyph name="C" format="2">
  <advance width="613"/>
  <unicode hex="0043"/>
  <outline>
    <contour>
      <point x="352" y="716" type="qcurve" smooth="yes"/>
      <point x="484" y="716"/>
      <point x="581" y="628" type="qcurve"/>
      <point x="547" y="580" type="line"/>
      <point x="496" y="623"/>
      <point x="406" y="653"/>
      <point x="353" y="653" type="qcurve" smooth="yes"/>
      <point x="253" y="653"/>
      <point x="134" y="499"/>
      <point x="134" y="352" type="qcurve" smooth="yes"/>
      <point x="134" y="317"/>
      <point x="141" y="249"/>
      <point x="168" y="163"/>
      <point x="211" y="101"/>
      <point x="292" y="57"/>
      <point x="345" y="57" type="qcurve" smooth="yes"/>
      <point x="456" y="57"/>
      <point x="545" y="126" type="qcurve"/>
      <point x="579" y="73" type="line"/>
      <point x="482" y="-7"/>
      <point x="344" y="-7" type="qcurve" smooth="yes"/>
      <point x="213" y="-7"/>
      <point x="56" y="179"/>
      <point x="56" y="352" type="qcurve" smooth="yes"/>
      <point x="56" y="373"/>
      <point x="59" y="418"/>
      <point x="73" y="493"/>
      <point x="96" y="559"/>
      <point x="142" y="631"/>
      <point x="202" y="683"/>
      <point x="295" y="716"/>
    </contour>
  </outline>
</glyph>
<glyph name="D" format="2">
  <advance width="620"/>
  <unicode hex="0044"/>
  <outline>
    <contour>
      <point x="158" y="642" type="line"/>
      <point x="158" y="64" type="line"/>
      <point x="271" y="64" type="line" smooth="yes"/>
      <point x="503" y="64"/>
      <point x="503" y="361" type="qcurve" smooth="yes"/>
      <point x="503" y="500"/>
      <point x="386" y="642"/>
      <point x="273" y="642" type="qcurve" smooth="yes"/>
    </contour>
    <contour>
      <point x="78" y="708" type="line"/>
      <point x="273" y="708" type="line" smooth="yes"/>
      <point x="423" y="708"/>
      <point x="582" y="529"/>
      <point x="582" y="361" type="qcurve" smooth="yes"/>
      <point x="582" y="183"/>
      <point x="423" y="0"/>
      <point x="269" y="0" type="qcurve" smooth="yes"/>
      <point x="78" y="0" type="line"/>
    </contour>
  </outline>
</glyph>
<glyph name="E" format="2">
  <advance width="546"/>
  <unicode hex="0045"/>
  <outline>
    <contour>
      <point x="78" y="708" type="line"/>
      <point x="508" y="708" type="line"/>
      <point x="508" y="644" type="line"/>
      <point x="158" y="644" type="line"/>
      <point x="158" y="402" type="line"/>
      <point x="430" y="402" type="line"/>
      <point x="430" y="332" type="line"/>
      <point x="158" y="332" type="line"/>
      <point x="158" y="64" type="line"/>
      <point x="508" y="64" type="line"/>
      <point x="508" y="0" type="line"/>
      <point x="78" y="0" type="line"/>
    </contour>
  </outline>
</glyph>
<glyph name="F" format="2">
  <advance width="556"/>
  <unicode hex="0046"/>
  <outline>
    <contour>
      <point x="78" y="708" type="line"/>
      <point x="518" y="708" type="line"/>
      <point x="518" y="644" type="line"/>
      <point x="160" y="644" type="line"/>
      <point x="160" y="406" type="line"/>
      <point x="440" y="406" type="line"/>
      <point x="440" y="336" type="line"/>
      <point x="160" y="336" type="line"/>
      <point x="160" y="0" type="line"/>
      <point x="78" y="0" type="line"/>
    </contour>
  </outline>
</glyph>
<glyph name="G" format="2">
  <advance width="648"/>
  <unicode hex="0047"/>
  <outline>
    <contour>
      <point x="357" y="716" type="qcurve" smooth="yes"/>
      <point x="489" y="716"/>
      <point x="585" y="626" type="qcurve"/>
      <point x="551" y="578" type="line"/>
      <point x="463" y="653"/>
      <point x="359" y="653" type="qcurve" smooth="yes"/>
      <point x="132" y="653"/>
      <point x="132" y="352" type="qcurve" smooth="yes"/>
      <point x="132" y="53"/>
      <point x="362" y="53" type="qcurve" smooth="yes"/>
      <point x="418" y="53"/>
      <point x="512" y="73" type="qcurve"/>
      <point x="512" y="326" type="line"/>
      <point x="324" y="326" type="line"/>
      <point x="324" y="392" type="line"/>
      <point x="592" y="392" type="line"/>
      <point x="592" y="30" type="line"/>
      <point x="467" y="-8"/>
      <point x="349" y="-8" type="qcurve" smooth="yes"/>
      <point x="302" y="-8"/>
      <point x="221" y="11"/>
      <point x="143" y="61"/>
      <point x="88" y="140"/>
      <point x="54" y="268"/>
      <point x="54" y="352" type="qcurve" smooth="yes"/>
      <point x="54" y="405"/>
      <point x="68" y="500"/>
      <point x="109" y="600"/>
      <point x="174" y="670"/>
      <point x="284" y="716"/>
    </contour>
  </outline>
</glyph>
<glyph name="H" format="2">
  <advance width="611"/>
  <unicode hex="0048"/>
  <outline>
    <contour>
      <point x="78" y="708" type="line"/>
      <point x="158" y="708" type="line"/>
      <point x="158" y="414" type="line"/>
      <point x="454" y="414" type="line"/>
      <point x="454" y="708" type="line"/>
      <point x="534" y="708" type="line"/>
      <point x="534" y="0" type="line"/>
      <point x="454" y="0" type="line"/>
      <point x="454" y="344" type="line"/>
      <point x="158" y="344" type="line"/>
      <point x="158" y="0" type="line"/>
      <point x="78" y="0" type="line"/>
    </contour>
  </outline>
</glyph>
<glyph name="I" format="2">
  <advance width="232"/>
  <unicode hex="0049"/>
  <outline>
    <contour>
      <point x="76" y="708" type="line"/>
      <point x="156" y="708" type="line"/>
      <point x="156" y="0" type="line"/>
      <point x="76" y="0" type="line"/>
    </contour>
  </outline>
</glyph>
<glyph name="J" format="2">
  <advance width="393"/>
  <unicode hex="004A"/>
  <outline>
    <contour>
      <point x="236" y="708" type="line"/>
      <point x="316" y="708" type="line"/>
      <point x="316" y="211" type="line" smooth="yes"/>
      <point x="316" y="184"/>
      <point x="309" y="133"/>
      <point x="284" y="70"/>
      <point x="243" y="24"/>
      <point x="166" y="-8"/>
      <point x="116" y="-8" type="qcurve" smooth="yes"/>
      <point x="73" y="-8"/>
      <point x="28" y="0" type="qcurve"/>
      <point x="37" y="56" type="line"/>
      <point x="117" y="56" type="line" smooth="yes"/>
      <point x="236" y="56"/>
      <point x="236" y="208" type="qcurve" smooth="yes"/>
    </contour>
  </outline>
</glyph>
<glyph name="K" format="2">
  <advance width="581"/>
  <unicode hex="004B"/>
  <outline>
    <contour>
      <point x="86" y="708" type="line"/>
      <point x="166" y="708" type="line"/>
      <point x="166" y="397" type="line"/>
      <point x="184" y="397" type="line"/>
      <point x="451" y="708" type="line"/>
      <point x="557" y="708" type="line"/>
      <point x="245" y="359" type="line"/>
      <point x="558" y="0" type="line"/>
      <point x="452" y="0" type="line"/>
      <point x="184" y="322" type="line"/>
      <point x="166" y="322" type="line"/>
      <point x="166" y="0" type="line"/>
      <point x="86" y="0" type="line"/>
    </contour>
  </outline>
</glyph>
<glyph name="M" format="2">
  <advance width="730"/>
  <unicode hex="004D"/>
  <outline>
    <contour>
      <point x="80" y="708" type="line"/>
      <point x="168" y="708" type="line"/>
      <point x="368" y="258" type="line"/>
      <point x="561" y="708" type="line"/>
      <point x="650" y="708" type="line"/>
      <point x="650" y="0" type="line"/>
      <point x="570" y="0" type="line"/>
      <point x="570" y="543" type="line"/>
      <point x="414" y="179" type="line"/>
      <point x="324" y="179" type="line"/>
      <point x="160" y="545" type="line"/>
      <point x="160" y="0" type="line"/>
      <point x="80" y="0" type="line"/>
    </contour>
  </outline>
</glyph>
<glyph name="N" format="2">
  <advance width="667"/>
  <unicode hex="004E"/>
  <outline>
    <contour>
      <point x="86" y="708" type="line"/>
      <point x="171" y="708" type="line"/>
      <point x="502" y="142" type="line"/>
      <point x="502" y="708" type="line"/>
      <point x="582" y="708" type="line"/>
      <point x="582" y="0" type="line"/>
      <point x="496" y="0" type="line"/>
      <point x="166" y="570" type="line"/>
      <point x="166" y="0" type="line"/>
      <point x="86" y="0" type="line"/>
    </contour>
  </outline>
</glyph>
<glyph name="O" format="2">
  <advance width="662"/>
  <unicode hex="004F"/>
  <outline>
    <contour>
      <point x="334" y="716" type="qcurve" smooth="yes"/>
      <point x="365" y="716"/>
      <point x="426" y="704"/>
      <point x="507" y="660"/>
      <point x="566" y="587"/>
      <point x="608" y="450"/>
      <point x="608" y="359" type="qcurve" smooth="yes"/>
      <point x="608" y="311"/>
      <point x="597" y="223"/>
      <point x="562" y="118"/>
      <point x="505" y="43"/>
      <point x="402" y="-8"/>
      <point x="334" y="-8" type="qcurve" smooth="yes"/>
      <point x="308" y="-8"/>
      <point x="256" y="1"/>
      <point x="188" y="26"/>
      <point x="132" y="78"/>
      <point x="82" y="154"/>
      <point x="54" y="278"/>
      <point x="54" y="356" type="qcurve" smooth="yes"/>
      <point x="54" y="396"/>
      <point x="63" y="474"/>
      <point x="97" y="581"/>
      <point x="154" y="660"/>
      <point x="262" y="716"/>
    </contour>
    <contour>
      <point x="334" y="652" type="qcurve" smooth="yes"/>
      <point x="134" y="652"/>
      <point x="134" y="356" type="qcurve" smooth="yes"/>
      <point x="134" y="56"/>
      <point x="334" y="56" type="qcurve" smooth="yes"/>
      <point x="528" y="56"/>
      <point x="528" y="356" type="qcurve" smooth="yes"/>
      <point x="528" y="400"/>
      <point x="521" y="471"/>
      <point x="498" y="556"/>
      <point x="458" y="613"/>
      <point x="384" y="652"/>
    </contour>
  </outline>
</glyph>
<glyph name="P" format="2">
  <advance width="605"/>
  <unicode hex="0050"/>
  <outline>
    <contour>
      <point x="162" y="644" type="line"/>
      <point x="162" y="324" type="line"/>
      <point x="309" y="324" type="line" smooth="yes"/>
      <point x="393" y="324"/>
      <point x="472" y="405"/>
      <point x="472" y="491" type="qcurve" smooth="yes"/>
      <point x="472" y="644"/>
      <point x="327" y="644" type="qcurve" smooth="yes"/>
    </contour>
    <contour>
      <point x="86" y="708" type="line"/>
      <point x="324" y="708" type="line" smooth="yes"/>
      <point x="434" y="708"/>
      <point x="552" y="596"/>
      <point x="552" y="491" type="qcurve" smooth="yes"/>
      <point x="552" y="377"/>
      <point x="429" y="260"/>
      <point x="309" y="260" type="qcurve" smooth="yes"/>
      <point x="162" y="260" type="line"/>
      <point x="162" y="0" type="line"/>
      <point x="86" y="0" type="line"/>
    </contour>
  </outline>
</glyph>
<glyph name="Q" format="2">
  <advance width="662"/>
  <unicode hex="0051"/>
  <outline>
    <contour>
      <point x="331" y="652" type="qcurve" smooth="yes"/>
      <point x="130" y="652"/>
      <point x="130" y="54"/>
      <point x="331" y="54" type="qcurve" smooth="yes"/>
      <point x="430" y="54"/>
      <point x="526" y="201"/>
      <point x="526" y="505"/>
      <point x="430" y="652"/>
    </contour>
    <contour>
      <point x="331" y="716" type="qcurve" smooth="yes"/>
      <point x="462" y="716"/>
      <point x="606" y="528"/>
      <point x="606" y="358" type="qcurve" smooth="yes"/>
      <point x="606" y="192"/>
      <point x="485" y="8"/>
      <point x="367" y="-5" type="qcurve"/>
      <point x="376" y="-120"/>
      <point x="483" y="-120" type="qcurve" smooth="yes"/>
      <point x="564" y="-120" type="line"/>
      <point x="569" y="-167" type="line"/>
      <point x="537" y="-184"/>
      <point x="475" y="-184" type="qcurve" smooth="yes"/>
      <point x="404" y="-184"/>
      <point x="303" y="-82"/>
      <point x="298" y="-5" type="qcurve"/>
      <point x="178" y="7"/>
      <point x="50" y="193"/>
      <point x="50" y="355" type="qcurve" smooth="yes"/>
      <point x="50" y="527"/>
      <point x="197" y="716"/>
    </contour>
  </outline>
</glyph>
<glyph name="R" format="2">
  <advance width="607"/>
  <unicode hex="0052"/>
  <outline>
    <contour>
      <point x="160" y="644" type="line"/>
      <point x="160" y="352" type="line"/>
      <point x="302" y="352" type="line" smooth="yes"/>
      <point x="386" y="352"/>
      <point x="466" y="426"/>
      <point x="466" y="503" type="qcurve" smooth="yes"/>
      <point x="466" y="644"/>
      <point x="321" y="644" type="qcurve" smooth="yes"/>
    </contour>
    <contour>
      <point x="80" y="708" type="line"/>
      <point x="321" y="708" type="line" smooth="yes"/>
      <point x="429" y="708"/>
      <point x="546" y="601"/>
      <point x="546" y="502" type="qcurve" smooth="yes"/>
      <point x="546" y="341"/>
      <point x="390" y="299" type="qcurve"/>
      <point x="565" y="0" type="line"/>
      <point x="478" y="0" type="line"/>
      <point x="319" y="288" type="line"/>
      <point x="160" y="288" type="line"/>
      <point x="160" y="0" type="line"/>
      <point x="80" y="0" type="line"/>
    </contour>
  </outline>
</glyph>
<glyph name="T" format="2">
  <advance width="611"/>
  <unicode hex="0054"/>
  <outline>
    <contour>
      <point x="46" y="708" type="line"/>
      <point x="566" y="708" type="line"/>
      <point x="566" y="641" type="line"/>
      <point x="345" y="641" type="line"/>
      <point x="345" y="0" type="line"/>
      <point x="265" y="0" type="line"/>
      <point x="265" y="641" type="line"/>
      <point x="46" y="641" type="line"/>
    </contour>
  </outline>
</glyph>
<glyph name="U" format="2">
  <advance width="635"/>
  <unicode hex="0055"/>
  <outline>
    <contour>
      <point x="78" y="708" type="line"/>
      <point x="158" y="708" type="line"/>
      <point x="158" y="265" type="line" smooth="yes"/>
      <point x="158" y="232"/>
      <point x="163" y="182"/>
      <point x="182" y="122"/>
      <point x="216" y="83"/>
      <point x="277" y="56"/>
      <point x="320" y="56" type="qcurve" smooth="yes"/>
      <point x="364" y="56"/>
      <point x="426" y="88"/>
      <point x="458" y="130"/>
      <point x="475" y="195"/>
      <point x="478" y="237"/>
      <point x="478" y="265" type="qcurve" smooth="yes"/>
      <point x="478" y="708" type="line"/>
      <point x="558" y="708" type="line"/>
      <point x="558" y="263" type="line" smooth="yes"/>
      <point x="558" y="228"/>
      <point x="549" y="163"/>
      <point x="518" y="86"/>
      <point x="467" y="30"/>
      <point x="376" y="-8"/>
      <point x="316" y="-8" type="qcurve" smooth="yes"/>
      <point x="287" y="-8"/>
      <point x="231" y="2"/>
      <point x="162" y="36"/>
      <point x="112" y="93"/>
      <point x="78" y="196"/>
      <point x="78" y="265" type="qcurve" smooth="yes"/>
    </contour>
  </outline>
</glyph>
<glyph name="V" format="2">
  <advance width="655"/>
  <unicode hex="0056"/>
  <outline>
    <contour>
      <point x="39" y="708" type="line"/>
      <point x="125" y="708" type="line"/>
      <point x="327" y="79" type="line"/>
      <point x="530" y="708" type="line"/>
      <point x="616" y="708" type="line"/>
      <point x="376" y="0" type="line"/>
      <point x="278" y="0" type="line"/>
    </contour>
  </outline>
</glyph>
<glyph name="W" format="2">
  <advance width="812"/>
  <unicode hex="0057"/>
  <outline>
    <contour>
      <point x="29" y="707" type="line"/>
      <point x="108" y="707" type="line"/>
      <point x="236" y="113" type="line"/>
      <point x="370" y="708" type="line"/>
      <point x="450" y="708" type="line"/>
      <point x="577" y="116" type="line"/>
      <point x="704" y="708" type="line"/>
      <point x="783" y="708" type="line"/>
      <point x="619" y="0" type="line"/>
      <point x="533" y="0" type="line"/>
      <point x="410" y="560" type="line"/>
      <point x="283" y="0" type="line"/>
      <point x="193" y="0" type="line"/>
    </contour>
  </outline>
</glyph>
<glyph name="X" format="2">
  <advance width="660"/>
  <unicode hex="0058"/>
  <outline>
    <contour>
      <point x="51" y="708" type="line"/>
      <point x="143" y="708" type="line"/>
      <point x="330" y="411" type="line"/>
      <point x="516" y="708" type="line"/>
      <point x="609" y="708" type="line"/>
      <point x="378" y="354" type="line"/>
      <point x="609" y="0" type="line"/>
      <point x="516" y="0" type="line"/>
      <point x="330" y="298" type="line"/>
      <point x="143" y="0" type="line"/>
      <point x="51" y="0" type="line"/>
      <point x="282" y="354" type="line"/>
    </contour>
  </outline>
</glyph>
<glyph name="Y" format="2">
  <advance width="595"/>
  <unicode hex="0059"/>
  <outline>
    <contour>
      <point x="20" y="708" type="line"/>
      <point x="113" y="708" type="line"/>
      <point x="299" y="342" type="line"/>
      <point x="482" y="708" type="line"/>
      <point x="575" y="708" type="line"/>
      <point x="338" y="269" type="line"/>
      <point x="338" y="0" type="line"/>
      <point x="260" y="0" type="line"/>
      <point x="260" y="271" type="line"/>
    </contour>
  </outline>
</glyph>
<glyph name="Z" format="2">
  <advance width="603"/>
  <unicode hex="005A"/>
  <outline>
    <contour>
      <point x="62" y="708" type="line"/>
      <point x="537" y="708" type="line"/>
      <point x="537" y="644" type="line"/>
      <point x="150" y="64" type="line"/>
      <point x="542" y="64" type="line"/>
      <point x="542" y="0" type="line"/>
      <point x="62" y="0" type="line"/>
      <point x="62" y="64" type="line"/>
      <point x="449" y="644" type="line"/>
      <point x="62" y="644" type="line"/>
    </contour>
  </outline>
</glyph>
<glyph name="bracketleft" format="2">
  <advance width="326"/>
  <unicode hex="005B"/>
  <outline>
    <contour>
      <point x="64" y="819" type="line"/>
      <point x="286" y="819" type="line"/>
      <point x="286" y="752" type="line"/>
      <point x="144" y="752" type="line"/>
      <point x="144" y="0" type="line"/>
      <point x="286" y="0" type="line"/>
      <point x="286" y="-64" type="line"/>
      <point x="64" y="-64" type="line"/>
    </contour>
  </outline>
</glyph>
<glyph name="bracketright" format="2">
  <advance width="326"/>
  <unicode hex="005D"/>
  <outline>
    <contour>
      <point x="40" y="819" type="line"/>
      <point x="262" y="819" type="line"/>
      <point x="262" y="-64" type="line"/>
      <point x="40" y="-64" type="line"/>
      <point x="40" y="0" type="line"/>
      <point x="184" y="0" type="line"/>
      <point x="184" y="752" type="line"/>
      <point x="40" y="752" type="line"/>
    </contour>
  </outline>
</glyph>
<glyph name="asciicircum" format="2">
  <advance width="505"/>
  <unicode hex="005E"/>
  <outline>
    <contour>
      <point x="74" y="717" type="line"/>
      <point x="207" y="852" type="line"/>
      <point x="274" y="852" type="line"/>
      <point x="407" y="717" type="line"/>
      <point x="364" y="666" type="line"/>
      <point x="241" y="785" type="line"/>
      <point x="118" y="666" type="line"/>
    </contour>
  </outline>
</glyph>
<glyph name="grave" format="2">
  <advance width="284"/>
  <unicode hex="0060"/>
  <outline>
    <contour>
      <point x="187" y="528" type="line"/>
      <point x="25" y="772" type="line"/>
      <point x="124" y="772" type="line"/>
      <point x="253" y="528" type="line"/>
    </contour>
  </outline>
</glyph>
<glyph name="a" format="2">
  <advance width="521"/>
  <unicode hex="0061"/>
  <outline>
    <contour>
      <point x="258" y="528" type="qcurve" smooth="yes"/>
      <point x="351" y="528"/>
      <point x="448" y="428"/>
      <point x="448" y="331" type="qcurve" smooth="yes"/>
      <point x="448" y="83" type="line" smooth="yes"/>
      <point x="448" y="51"/>
      <point x="480" y="51" type="qcurve" smooth="yes"/>
      <point x="501" y="51" type="line"/>
      <point x="501" y="-2" type="line"/>
      <point x="480" y="-8"/>
      <point x="450" y="-8" type="qcurve" smooth="yes"/>
      <point x="377" y="-8"/>
      <point x="368" y="80" type="qcurve"/>
      <point x="311" y="-8"/>
      <point x="204" y="-8" type="qcurve" smooth="yes"/>
      <point x="124" y="-8"/>
      <point x="42" y="72"/>
      <point x="42" y="149" type="qcurve" smooth="yes"/>
      <point x="42" y="225"/>
      <point x="155" y="307"/>
      <point x="262" y="307" type="qcurve" smooth="yes"/>
      <point x="368" y="307" type="line"/>
      <point x="368" y="345" type="line" smooth="yes"/>
      <point x="368" y="464"/>
      <point x="253" y="464" type="qcurve" smooth="yes"/>
      <point x="172" y="464"/>
      <point x="107" y="411" type="qcurve"/>
      <point x="69" y="456" type="line"/>
      <point x="161" y="528"/>
    </contour>
    <contour>
      <point x="368" y="245" type="line"/>
      <point x="259" y="245" type="line" smooth="yes"/>
      <point x="186" y="245"/>
      <point x="122" y="198"/>
      <point x="122" y="148" type="qcurve" smooth="yes"/>
      <point x="122" y="56"/>
      <point x="232" y="56" type="qcurve" smooth="yes"/>
      <point x="270" y="56"/>
      <point x="348" y="100"/>
      <point x="368" y="129" type="qcurve"/>
    </contour>
  </outline>
</glyph>
<glyph name="b" format="2">
  <advance width="600"/>
  <unicode hex="0062"/>
  <outline>
    <contour>
      <point x="80" y="716" type="line"/>
      <point x="158" y="716" type="line"/>
      <point x="158" y="438" type="line"/>
      <point x="213" y="528"/>
      <point x="321" y="528" type="qcurve" smooth="yes"/>
      <point x="430" y="528"/>
      <point x="544" y="395"/>
      <point x="544" y="269" type="qcurve" smooth="yes"/>
      <point x="544" y="134"/>
      <point x="430" y="-8"/>
      <point x="321" y="-8" type="qcurve" smooth="yes"/>
      <point x="222" y="-8"/>
      <point x="156" y="99" type="qcurve"/>
      <point x="141" y="0" type="line"/>
      <point x="80" y="0" type="line"/>
    </contour>
    <contour>
      <point x="313" y="464" type="qcurve" smooth="yes"/>
      <point x="257" y="464"/>
      <point x="172" y="409"/>
      <point x="158" y="363" type="qcurve"/>
      <point x="158" y="151" type="line"/>
      <point x="182" y="107"/>
      <point x="266" y="56"/>
      <point x="313" y="56" type="qcurve" smooth="yes"/>
      <point x="464" y="56"/>
      <point x="464" y="267" type="qcurve" smooth="yes"/>
      <point x="464" y="369"/>
      <point x="391" y="464"/>
    </contour>
  </outline>
</glyph>
<glyph name="d" format="2">
  <advance width="590"/>
  <unicode hex="0064"/>
  <outline>
    <contour>
      <point x="430" y="724" type="line"/>
      <point x="510" y="724" type="line"/>
      <point x="510" y="0" type="line"/>
      <point x="448" y="0" type="line"/>
      <point x="434" y="100" type="line"/>
      <point x="358" y="-8"/>
      <point x="264" y="-8" type="qcurve" smooth="yes"/>
      <point x="48" y="-8"/>
      <point x="48" y="270" type="qcurve" smooth="yes"/>
      <point x="48" y="528"/>
      <point x="264" y="528" type="qcurve" smooth="yes"/>
      <point x="293" y="528"/>
      <point x="349" y="509"/>
      <point x="384" y="485"/>
      <point x="416" y="453"/>
      <point x="426" y="440"/>
      <point x="430" y="434" type="qcurve"/>
    </contour>
    <contour>
      <point x="282" y="464" type="qcurve" smooth="yes"/>
      <point x="130" y="464"/>
      <point x="130" y="267" type="qcurve" smooth="yes"/>
      <point x="130" y="56"/>
      <point x="282" y="56" type="qcurve" smooth="yes"/>
      <point x="369" y="56"/>
      <point x="430" y="149" type="qcurve"/>
      <point x="430" y="366" type="line"/>
      <point x="380" y="464"/>
    </contour>
  </outline>
</glyph>
<glyph name="e" format="2">
  <advance width="535"/>
  <unicode hex="0065"/>
  <outline>
    <contour>
      <point x="279" y="528" type="qcurve" smooth="yes"/>
      <point x="374" y="528"/>
      <point x="486" y="404"/>
      <point x="486" y="298" type="qcurve" smooth="yes"/>
      <point x="486" y="251"/>
      <point x="480" y="236" type="qcurve"/>
      <point x="128" y="236" type="line"/>
      <point x="130" y="56"/>
      <point x="286" y="56" type="qcurve" smooth="yes"/>
      <point x="339" y="56"/>
      <point x="415" y="86"/>
      <point x="452" y="121" type="qcurve"/>
      <point x="487" y="71" type="line"/>
      <point x="391" y="-8"/>
      <point x="279" y="-8" type="qcurve" smooth="yes"/>
      <point x="170" y="-8"/>
      <point x="48" y="134"/>
      <point x="48" y="261" type="qcurve" smooth="yes"/>
      <point x="48" y="392"/>
      <point x="166" y="528"/>
    </contour>
    <contour>
      <point x="268" y="464" type="qcurve" smooth="yes"/>
      <point x="128" y="464"/>
      <point x="128" y="295" type="qcurve"/>
      <point x="411" y="295" type="line"/>
      <point x="411" y="318" type="line" smooth="yes"/>
      <point x="411" y="389"/>
      <point x="337" y="464"/>
    </contour>
  </outline>
</glyph>
<glyph name="f" format="2">
  <advance width="375"/>
  <unicode hex="0066"/>
  <outline>
    <contour>
      <point x="278" y="732" type="qcurve" smooth="yes"/>
      <point x="323" y="732"/>
      <point x="355" y="725" type="qcurve"/>
      <point x="348" y="669" type="line"/>
      <point x="278" y="669" type="line" smooth="yes"/>
      <point x="212" y="669"/>
      <point x="212" y="598" type="qcurve" smooth="yes"/>
      <point x="212" y="520" type="line"/>
      <point x="346" y="520" type="line"/>
      <point x="346" y="456" type="line"/>
      <point x="212" y="456" type="line"/>
      <point x="212" y="0" type="line"/>
      <point x="132" y="0" type="line"/>
      <point x="132" y="456" type="line"/>
      <point x="32" y="456" type="line"/>
      <point x="32" y="520" type="line"/>
      <point x="132" y="520" type="line"/>
      <point x="132" y="584" type="line" smooth="yes"/>
      <point x="132" y="599"/>
      <point x="136" y="630"/>
      <point x="154" y="675"/>
      <point x="183" y="708"/>
      <point x="240" y="732"/>
    </contour>
  </outline>
</glyph>
<glyph name="g" format="2">
  <advance width="558"/>
  <unicode hex="0067"/>
  <outline>
    <contour>
      <point x="246" y="464" type="qcurve" smooth="yes"/>
      <point x="190" y="464"/>
      <point x="130" y="409"/>
      <point x="130" y="357" type="qcurve" smooth="yes"/>
      <point x="130" y="301"/>
      <point x="186" y="248"/>
      <point x="246" y="248" type="qcurve" smooth="yes"/>
      <point x="356" y="248"/>
      <point x="356" y="357" type="qcurve" smooth="yes"/>
      <point x="356" y="407"/>
      <point x="298" y="464"/>
    </contour>
    <contour>
      <point x="155" y="528"/>
      <point x="329" y="528"/>
      <point x="383" y="482" type="qcurve"/>
      <point x="409" y="520"/>
      <point x="462" y="520" type="qcurve" smooth="yes"/>
      <point x="514" y="520" type="line"/>
      <point x="514" y="456" type="line"/>
      <point x="408" y="456" type="line"/>
      <point x="436" y="418"/>
      <point x="436" y="361" type="qcurve" smooth="yes"/>
      <point x="436" y="282"/>
      <point x="344" y="198"/>
      <point x="248" y="190" type="qcurve" smooth="yes"/>
      <point x="180" y="185"/>
      <point x="124" y="153"/>
      <point x="124" y="119" type="qcurve" smooth="yes"/>
      <point x="124" y="79"/>
      <point x="203" y="79" type="qcurve" smooth="yes"/>
      <point x="347" y="79" type="line" smooth="yes"/>
      <point x="430" y="79"/>
      <point x="518" y="16"/>
      <point x="518" y="-44" type="qcurve" smooth="yes"/>
      <point x="518" y="-112"/>
      <point x="384" y="-192"/>
      <point x="269" y="-192" type="qcurve" smooth="yes"/>
      <point x="140" y="-192"/>
      <point x="16" y="-109" type="qcurve"/>
      <point x="58" y="-53" type="line"/>
      <point x="168" y="-128"/>
      <point x="271" y="-128" type="qcurve" smooth="yes"/>
      <point x="438" y="-128"/>
      <point x="438" y="-48" type="qcurve" smooth="yes"/>
      <point x="438" y="12"/>
      <point x="356" y="12" type="qcurve" smooth="yes"/>
      <point x="205" y="12" type="line" smooth="yes"/>
      <point x="132" y="12"/>
      <point x="52" y="68"/>
      <point x="52" y="118" type="qcurve" smooth="yes"/>
      <point x="52" y="180"/>
      <point x="135" y="210" type="qcurve"/>
      <point x="52" y="256"/>
      <point x="52" y="361" type="qcurve" smooth="yes"/>
      <point x="52" y="437"/>
    </contour>
  </outline>
</glyph>
<glyph name="h" format="2">
  <advance width="550"/>
  <unicode hex="0068"/>
  <outline>
    <contour>
      <point x="64" y="707" type="line"/>
      <point x="144" y="707" type="line"/>
      <point x="144" y="443" type="line"/>
      <point x="220" y="528"/>
      <point x="307" y="528" type="qcurve" smooth="yes"/>
      <point x="486" y="528"/>
      <point x="486" y="325" type="qcurve" smooth="yes"/>
      <point x="486" y="0" type="line"/>
      <point x="406" y="0" type="line"/>
      <point x="406" y="323" type="line" smooth="yes"/>
      <point x="406" y="396"/>
      <point x="348" y="464"/>
      <point x="287" y="464" type="qcurve" smooth="yes"/>
      <point x="212" y="464"/>
      <point x="144" y="372" type="qcurve"/>
      <point x="144" y="0" type="line"/>
      <point x="64" y="0" type="line"/>
    </contour>
  </outline>
</glyph>
<glyph name="i" format="2">
  <advance width="292"/>
  <unicode hex="0069"/>
  <outline>
    <contour>
      <point x="30" y="520" type="line"/>
      <point x="212" y="520" type="line"/>
      <point x="212" y="0" type="line"/>
      <point x="132" y="0" type="line"/>
      <point x="132" y="456" type="line"/>
      <point x="30" y="456" type="line"/>
    </contour>
    <contour>
      <point x="150" y="739"/>
      <point x="196" y="739"/>
      <point x="228" y="706"/>
      <point x="228" y="662"/>
      <point x="196" y="629"/>
      <point x="150" y="629"/>
      <point x="118" y="662"/>
      <point x="118" y="706"/>
    </contour>
  </outline>
</glyph>
<glyph name="j" format="2">
  <advance width="274"/>
  <unicode hex="006A"/>
  <outline>
    <contour>
      <point x="97" y="520" type="line"/>
      <point x="177" y="520" type="line"/>
      <point x="177" y="-34" type="line" smooth="yes"/>
      <point x="177" y="-46"/>
      <point x="174" y="-74"/>
      <point x="154" y="-125"/>
      <point x="122" y="-163"/>
      <point x="54" y="-192"/>
      <point x="9" y="-192" type="qcurve" smooth="yes"/>
      <point x="0" y="-192" type="line"/>
      <point x="0" y="-128" type="line"/>
      <point x="9" y="-128" type="line" smooth="yes"/>
      <point x="23" y="-128"/>
      <point x="48" y="-122"/>
      <point x="79" y="-104"/>
      <point x="97" y="-64"/>
      <point x="97" y="-34" type="qcurve" smooth="yes"/>
    </contour>
    <contour>
      <point x="84" y="660"/>
      <point x="84" y="708"/>
      <point x="116" y="739"/>
      <point x="138" y="739" type="qcurve" smooth="yes"/>
      <point x="162" y="739"/>
      <point x="194" y="706"/>
      <point x="194" y="662"/>
      <point x="162" y="629"/>
      <point x="138" y="629" type="qcurve" smooth="yes"/>
      <point x="116" y="629"/>
    </contour>
  </outline>
</glyph>
<glyph name="k" format="2">
  <advance width="523"/>
  <unicode hex="006B"/>
  <outline>
    <contour>
      <point x="80" y="708" type="line"/>
      <point x="160" y="708" type="line"/>
      <point x="160" y="309" type="line"/>
      <point x="195" y="309" type="line"/>
      <point x="388" y="520" type="line"/>
      <point x="496" y="520" type="line"/>
      <point x="262" y="275" type="line"/>
      <point x="499" y="0" type="line"/>
      <point x="392" y="0" type="line"/>
      <point x="190" y="245" type="line"/>
      <point x="160" y="245" type="line"/>
      <point x="160" y="0" type="line"/>
      <point x="80" y="0" type="line"/>
    </contour>
  </outline>
</glyph>
<glyph name="l" format="2">
  <advance width="255"/>
  <unicode hex="006C"/>
  <outline>
    <contour>
      <point x="72" y="772" type="line"/>
      <point x="152" y="772" type="line"/>
      <point x="152" y="92" type="line" smooth="yes"/>
      <point x="152" y="55"/>
      <point x="178" y="55" type="qcurve" smooth="yes"/>
      <point x="185" y="55"/>
      <point x="203" y="58" type="qcurve" smooth="yes"/>
      <point x="238" y="63" type="line"/>
      <point x="246" y="6" type="line"/>
      <point x="202" y="-8"/>
      <point x="163" y="-8" type="qcurve" smooth="yes"/>
      <point x="119" y="-8"/>
      <point x="72" y="41"/>
      <point x="72" y="87" type="qcurve" smooth="yes"/>
    </contour>
  </outline>
</glyph>
<glyph name="m" format="2">
  <advance width="836"/>
  <unicode hex="006D"/>
  <outline>
    <contour>
      <point x="80" y="520" type="line"/>
      <point x="143" y="520" type="line"/>
      <point x="160" y="444" type="line"/>
      <point x="228" y="528"/>
      <point x="316" y="528" type="qcurve" smooth="yes"/>
      <point x="421" y="528"/>
      <point x="451" y="442" type="qcurve"/>
      <point x="502" y="528"/>
      <point x="596" y="528" type="qcurve" smooth="yes"/>
      <point x="673" y="528"/>
      <point x="756" y="437"/>
      <point x="756" y="353" type="qcurve" smooth="yes"/>
      <point x="756" y="0" type="line"/>
      <point x="676" y="0" type="line"/>
      <point x="676" y="352" type="line" smooth="yes"/>
      <point x="676" y="411"/>
      <point x="629" y="464"/>
      <point x="577" y="464" type="qcurve" smooth="yes"/>
      <point x="507" y="464"/>
      <point x="453" y="392" type="qcurve"/>
      <point x="453" y="0" type="line"/>
      <point x="373" y="0" type="line"/>
      <point x="373" y="368" type="line" smooth="yes"/>
      <point x="373" y="464"/>
      <point x="282" y="464" type="qcurve" smooth="yes"/>
      <point x="203" y="464"/>
      <point x="160" y="393" type="qcurve"/>
      <point x="160" y="0" type="line"/>
      <point x="80" y="0" type="line"/>
    </contour>
  </outline>
</glyph>
<glyph name="n" format="2">
  <advance width="570"/>
  <unicode hex="006E"/>
  <outline>
    <contour>
      <point x="80" y="520" type="line"/>
      <point x="141" y="520" type="line"/>
      <point x="160" y="438" type="line"/>
      <point x="228" y="528"/>
      <point x="317" y="528" type="qcurve" smooth="yes"/>
      <point x="398" y="528"/>
      <point x="490" y="426"/>
      <point x="490" y="336" type="qcurve" smooth="yes"/>
      <point x="490" y="0" type="line"/>
      <point x="410" y="0" type="line"/>
      <point x="410" y="334" type="line" smooth="yes"/>
      <point x="410" y="400"/>
      <point x="358" y="462"/>
      <point x="302" y="462" type="qcurve" smooth="yes"/>
      <point x="217" y="462"/>
      <point x="160" y="383" type="qcurve"/>
      <point x="160" y="0" type="line"/>
      <point x="80" y="0" type="line"/>
    </contour>
  </outline>
</glyph>
<glyph name="q" format="2">
  <advance width="598"/>
  <unicode hex="0071"/>
  <outline>
    <contour>
      <point x="290" y="464" type="qcurve" smooth="yes"/>
      <point x="136" y="464"/>
      <point x="136" y="263" type="qcurve" smooth="yes"/>
      <point x="136" y="167"/>
      <point x="219" y="56"/>
      <point x="290" y="56" type="qcurve" smooth="yes"/>
      <point x="343" y="56"/>
      <point x="422" y="109"/>
      <point x="438" y="155" type="qcurve"/>
      <point x="438" y="372" type="line"/>
      <point x="414" y="415"/>
      <point x="335" y="464"/>
    </contour>
    <contour>
      <point x="456" y="520" type="line"/>
      <point x="518" y="520" type="line"/>
      <point x="518" y="-191" type="line"/>
      <point x="438" y="-191" type="line"/>
      <point x="438" y="71" type="line"/>
      <point x="391" y="28"/>
      <point x="312" y="-8"/>
      <point x="263" y="-8" type="qcurve" smooth="yes"/>
      <point x="165" y="-8"/>
      <point x="56" y="133"/>
      <point x="56" y="260" type="qcurve" smooth="yes"/>
      <point x="56" y="391"/>
      <point x="164" y="528"/>
      <point x="268" y="528" type="qcurve" smooth="yes"/>
      <point x="362" y="528"/>
      <point x="442" y="438" type="qcurve"/>
    </contour>
  </outline>
</glyph>
<glyph name="r" format="2">
  <advance width="366"/>
  <unicode hex="0072"/>
  <outline>
    <contour>
      <point x="80" y="520" type="line"/>
      <point x="141" y="520" type="line"/>
      <point x="160" y="442" type="line"/>
      <point x="160" y="528"/>
      <point x="266" y="528" type="qcurve" smooth="yes"/>
      <point x="303" y="528"/>
      <point x="341" y="523" type="qcurve"/>
      <point x="335" y="460" type="line"/>
      <point x="270" y="460" type="line" smooth="yes"/>
      <point x="201" y="460"/>
      <point x="160" y="395" type="qcurve"/>
      <point x="160" y="0" type="line"/>
      <point x="80" y="0" type="line"/>
    </contour>
  </outline>
</glyph>
<glyph name="s" format="2">
  <advance width="456"/>
  <unicode hex="0073"/>
  <outline>
    <contour>
      <point x="236" y="528" type="qcurve" smooth="yes"/>
      <point x="333" y="528"/>
      <point x="425" y="463" type="qcurve"/>
      <point x="382" y="413" type="line"/>
      <point x="312" y="464"/>
      <point x="238" y="464" type="qcurve" smooth="yes"/>
      <point x="124" y="464"/>
      <point x="124" y="389" type="qcurve" smooth="yes"/>
      <point x="124" y="326"/>
      <point x="195" y="311" type="qcurve" smooth="yes"/>
      <point x="293" y="290" type="line" smooth="yes"/>
      <point x="372" y="273"/>
      <point x="432" y="204"/>
      <point x="432" y="141" type="qcurve" smooth="yes"/>
      <point x="432" y="91"/>
      <point x="369" y="21"/>
      <point x="277" y="-8"/>
      <point x="223" y="-8" type="qcurve" smooth="yes"/>
      <point x="99" y="-8"/>
      <point x="20" y="62" type="qcurve"/>
      <point x="63" y="116" type="line"/>
      <point x="131" y="57"/>
      <point x="221" y="57" type="qcurve" smooth="yes"/>
      <point x="242" y="57"/>
      <point x="280" y="63"/>
      <point x="325" y="78"/>
      <point x="352" y="115"/>
      <point x="352" y="141" type="qcurve" smooth="yes"/>
      <point x="352" y="178"/>
      <point x="313" y="214"/>
      <point x="266" y="223" type="qcurve" smooth="yes"/>
      <point x="171" y="243" type="line" smooth="yes"/>
      <point x="150" y="248"/>
      <point x="113" y="264"/>
      <point x="70" y="296"/>
      <point x="44" y="353"/>
      <point x="44" y="390" type="qcurve" smooth="yes"/>
      <point x="44" y="448"/>
      <point x="145" y="528"/>
    </contour>
  </outline>
</glyph>
<glyph name="t" format="2">
  <advance width="409"/>
  <unicode hex="0074"/>
  <outline>
    <contour>
      <point x="137" y="649" type="line"/>
      <point x="215" y="687" type="line"/>
      <point x="215" y="520" type="line"/>
      <point x="345" y="520" type="line"/>
      <point x="345" y="456" type="line"/>
      <point x="215" y="456" type="line"/>
      <point x="215" y="123" type="line" smooth="yes"/>
      <point x="215" y="53"/>
      <point x="269" y="53" type="qcurve" smooth="yes"/>
      <point x="279" y="53"/>
      <point x="295" y="55" type="qcurve" smooth="yes"/>
      <point x="344" y="63" type="line"/>
      <point x="353" y="7" type="line"/>
      <point x="296" y="-8"/>
      <point x="267" y="-8" type="qcurve" smooth="yes"/>
      <point x="137" y="-8"/>
      <point x="137" y="121" type="qcurve" smooth="yes"/>
      <point x="137" y="456" type="line"/>
      <point x="35" y="456" type="line"/>
      <point x="35" y="520" type="line"/>
      <point x="137" y="520" type="line"/>
    </contour>
  </outline>
</glyph>
<glyph name="u" format="2">
  <advance width="562"/>
  <unicode hex="0075"/>
  <outline>
    <contour>
      <point x="72" y="520" type="line"/>
      <point x="152" y="520" type="line"/>
      <point x="152" y="197" type="line" smooth="yes"/>
      <point x="152" y="56"/>
      <point x="258" y="56" type="qcurve" smooth="yes"/>
      <point x="338" y="56"/>
      <point x="404" y="146" type="qcurve"/>
      <point x="404" y="520" type="line"/>
      <point x="482" y="520" type="line"/>
      <point x="482" y="0" type="line"/>
      <point x="420" y="0" type="line"/>
      <point x="406" y="81" type="line"/>
      <point x="331" y="-8"/>
      <point x="233" y="-8" type="qcurve" smooth="yes"/>
      <point x="213" y="-8"/>
      <point x="185" y="-5"/>
      <point x="132" y="16"/>
      <point x="99" y="55"/>
      <point x="72" y="137"/>
      <point x="72" y="195" type="qcurve" smooth="yes"/>
    </contour>
  </outline>
</glyph>
<glyph name="v" format="2">
  <advance width="548"/>
  <unicode hex="0076"/>
  <outline>
    <contour>
      <point x="32" y="520" type="line"/>
      <point x="118" y="520" type="line"/>
      <point x="277" y="77" type="line"/>
      <point x="430" y="520" type="line"/>
      <point x="516" y="520" type="line"/>
      <point x="322" y="0" type="line"/>
      <point x="232" y="0" type="line"/>
    </contour>
  </outline>
</glyph>
<glyph name="w" format="2">
  <advance width="757"/>
  <unicode hex="0077"/>
  <outline>
    <contour>
      <point x="40" y="520" type="line"/>
      <point x="120" y="520" type="line"/>
      <point x="213" y="73" type="line"/>
      <point x="333" y="520" type="line"/>
      <point x="425" y="520" type="line"/>
      <point x="537" y="78" type="line"/>
      <point x="636" y="520" type="line"/>
      <point x="717" y="520" type="line"/>
      <point x="591" y="0" type="line"/>
      <point x="489" y="0" type="line"/>
      <point x="379" y="434" type="line"/>
      <point x="262" y="0" type="line"/>
      <point x="160" y="0" type="line"/>
    </contour>
  </outline>
</glyph>
<glyph name="z" format="2">
  <advance width="530"/>
  <unicode hex="007A"/>
  <outline>
    <contour>
      <point x="66" y="520" type="line"/>
      <point x="460" y="520" type="line"/>
      <point x="460" y="451" type="line"/>
      <point x="159" y="65" type="line"/>
      <point x="466" y="65" type="line"/>
      <point x="466" y="0" type="line"/>
      <point x="64" y="0" type="line"/>
      <point x="64" y="65" type="line"/>
      <point x="369" y="451" type="line"/>
      <point x="66" y="451" type="line"/>
    </contour>
  </outline>
</glyph>
<glyph name="braceleft" format="2">
  <advance width="298"/>
  <unicode hex="007B"/>
  <outline>
    <contour>
      <point x="286" y="814" type="qcurve"/>
      <point x="286" y="748" type="line"/>
      <point x="237" y="748"/>
      <point x="174" y="677"/>
      <point x="174" y="630" type="qcurve"/>
      <point x="206" y="512" type="line"/>
      <point x="206" y="422"/>
      <point x="130" y="376" type="qcurve"/>
      <point x="169" y="360"/>
      <point x="206" y="282"/>
      <point x="206" y="248" type="qcurve"/>
      <point x="174" y="116" type="line"/>
      <point x="174" y="66"/>
      <point x="234" y="0"/>
      <point x="286" y="0" type="qcurve"/>
      <point x="286" y="-67" type="line"/>
      <point x="205" y="-66"/>
      <point x="94" y="42"/>
      <point x="94" y="115" type="qcurve"/>
      <point x="126" y="261" type="line"/>
      <point x="126" y="295"/>
      <point x="70" y="344"/>
      <point x="36" y="344" type="qcurve"/>
      <point x="36" y="410" type="line"/>
      <point x="72" y="410"/>
      <point x="126" y="465"/>
      <point x="126" y="502" type="qcurve"/>
      <point x="94" y="631" type="line"/>
      <point x="94" y="704"/>
      <point x="206" y="814"/>
    </contour>
  </outline>
</glyph>
<glyph name="braceright" format="2">
  <advance width="298"/>
  <unicode hex="007D"/>
  <outline>
    <contour>
      <point x="36" y="814" type="line"/>
      <point x="116" y="814"/>
      <point x="228" y="704"/>
      <point x="228" y="631" type="qcurve"/>
      <point x="196" y="502" type="line"/>
      <point x="196" y="465"/>
      <point x="250" y="410"/>
      <point x="286" y="410" type="qcurve"/>
      <point x="286" y="344" type="line"/>
      <point x="252" y="344"/>
      <point x="196" y="295"/>
      <point x="196" y="261" type="qcurve"/>
      <point x="228" y="115" type="line"/>
      <point x="228" y="42"/>
      <point x="117" y="-66"/>
      <point x="36" y="-67" type="qcurve"/>
      <point x="36" y="0" type="line"/>
      <point x="88" y="0"/>
      <point x="148" y="66"/>
      <point x="148" y="116" type="qcurve"/>
      <point x="116" y="248" type="line"/>
      <point x="116" y="282"/>
      <point x="153" y="360"/>
      <point x="192" y="376" type="qcurve"/>
      <point x="116" y="422"/>
      <point x="116" y="512" type="qcurve"/>
      <point x="148" y="630" type="line"/>
      <point x="148" y="677"/>
      <point x="85" y="748"/>
      <point x="36" y="748" type="qcurve"/>
    </contour>
  </outline>
</glyph>
<glyph name="asciitilde" format="2">
  <advance width="669"/>
  <unicode hex="007E"/>
  <outline>
    <contour>
      <point x="588" y="343" type="line"/>
      <point x="530" y="225"/>
      <point x="431" y="225" type="qcurve" smooth="yes"/>
      <point x="402" y="225"/>
      <point x="345" y="253"/>
      <point x="307" y="288"/>
      <point x="259" y="316"/>
      <point x="237" y="316" type="qcurve" smooth="yes"/>
      <point x="213" y="316"/>
      <point x="173" y="293"/>
      <point x="146" y="257"/>
      <point x="134" y="234"/>
      <point x="129" y="223" type="qcurve"/>
      <point x="74" y="265" type="line"/>
      <point x="89" y="309"/>
      <point x="179" y="386"/>
      <point x="249" y="386" type="qcurve" smooth="yes"/>
      <point x="286" y="386"/>
      <point x="407" y="296"/>
      <point x="439" y="296" type="qcurve" smooth="yes"/>
      <point x="488" y="296"/>
      <point x="524" y="385" type="qcurve"/>
    </contour>
  </outline>
</glyph>
<glyph name="cent" format="2">
  <advance width="498"/>
  <unicode hex="00A2"/>
  <outline>
    <contour>
      <point x="243" y="618" type="line"/>
      <point x="321" y="618" type="line"/>
      <point x="321" y="-94" type="line"/>
      <point x="243" y="-94" type="line"/>
    </contour>
    <contour>
      <point x="282" y="528" type="qcurve" smooth="yes"/>
      <point x="340" y="528"/>
      <point x="421" y="496"/>
      <point x="470" y="454" type="qcurve"/>
      <point x="435" y="403" type="line"/>
      <point x="397" y="438"/>
      <point x="332" y="464"/>
      <point x="286" y="464" type="qcurve" smooth="yes"/>
      <point x="128" y="464"/>
      <point x="128" y="56"/>
      <point x="284" y="56" type="qcurve" smooth="yes"/>
      <point x="337" y="56"/>
      <point x="405" y="84"/>
      <point x="438" y="119" type="qcurve"/>
      <point x="474" y="68" type="line"/>
      <point x="398" y="-8"/>
      <point x="280" y="-8" type="qcurve" smooth="yes"/>
      <point x="171" y="-8"/>
      <point x="48" y="135"/>
      <point x="48" y="260" type="qcurve" smooth="yes"/>
      <point x="48" y="389"/>
      <point x="169" y="528"/>
    </contour>
  </outline>
</glyph>
<glyph name="sterling" format="2">
  <advance width="601"/>
  <unicode hex="00A3"/>
  <outline>
    <contour>
      <point x="352" y="716" type="qcurve" smooth="yes"/>
      <point x="465" y="716"/>
      <point x="554" y="636" type="qcurve"/>
      <point x="522" y="584" type="line"/>
      <point x="442" y="651"/>
      <point x="349" y="651" type="qcurve" smooth="yes"/>
      <point x="288" y="651"/>
      <point x="196" y="584"/>
      <point x="196" y="526" type="qcurve" smooth="yes"/>
      <point x="196" y="479"/>
      <point x="238" y="382" type="qcurve"/>
      <point x="428" y="382" type="line"/>
      <point x="428" y="312" type="line"/>
      <point x="264" y="312" type="line"/>
      <point x="272" y="280"/>
      <point x="272" y="258" type="qcurve" smooth="yes"/>
      <point x="272" y="187"/>
      <point x="218" y="100"/>
      <point x="167" y="69" type="qcurve"/>
      <point x="540" y="69" type="line"/>
      <point x="540" y="0" type="line"/>
      <point x="62" y="0" type="line"/>
      <point x="62" y="85" type="line"/>
      <point x="194" y="114"/>
      <point x="194" y="268" type="qcurve" smooth="yes"/>
      <point x="194" y="288"/>
      <point x="188" y="312" type="qcurve"/>
      <point x="34" y="312" type="line"/>
      <point x="34" y="382" type="line"/>
      <point x="163" y="382" type="line"/>
      <point x="120" y="468"/>
      <point x="120" y="526" type="qcurve" smooth="yes"/>
      <point x="120" y="554"/>
      <point x="145" y="616"/>
      <point x="196" y="677"/>
      <point x="291" y="716"/>
    </contour>
  </outline>
</glyph>
<glyph name="currency" format="2">
  <advance width="654"/>
  <unicode hex="00A4"/>
  <outline>
    <contour>
      <point x="495" y="175" type="line"/>
      <point x="614" y="56" type="line"/>
      <point x="556" y="-2" type="line"/>
      <point x="437" y="116" type="line"/>
    </contour>
    <contour>
      <point x="217" y="116" type="line"/>
      <point x="98" y="-2" type="line"/>
      <point x="40" y="56" type="line"/>
      <point x="159" y="174" type="line"/>
    </contour>
    <contour>
      <point x="160" y="347" type="line"/>
      <point x="41" y="466" type="line"/>
      <point x="98" y="523" type="line"/>
      <point x="217" y="405" type="line"/>
    </contour>
    <contour>
      <point x="436" y="404" type="line"/>
      <point x="556" y="523" type="line"/>
      <point x="614" y="465" type="line"/>
      <point x="494" y="346" type="line"/>
    </contour>
    <contour>
      <point x="398" y="425"/>
      <point x="256" y="425"/>
      <point x="167" y="330"/>
      <point x="167" y="188"/>
      <point x="255" y="94"/>
      <point x="327" y="94" type="qcurve" smooth="yes"/>
      <point x="398" y="94"/>
      <point x="487" y="189"/>
      <point x="487" y="259" type="qcurve" smooth="yes"/>
      <point x="487" y="330"/>
    </contour>
    <contour>
      <point x="424" y="22"/>
      <point x="230" y="22"/>
      <point x="95" y="161"/>
      <point x="95" y="359"/>
      <point x="230" y="497"/>
      <point x="424" y="497"/>
      <point x="559" y="359"/>
      <point x="559" y="161"/>
    </contour>
  </outline>
</glyph>
<glyph name="yen" format="2">
  <advance width="595"/>
  <unicode hex="00A5"/>
  <outline>
    <contour>
      <point x="100" y="322" type="line"/>
      <point x="498" y="322" type="line"/>
      <point x="498" y="258" type="line"/>
      <point x="100" y="258" type="line"/>
    </contour>
    <contour>
      <point x="100" y="168" type="line"/>
      <point x="498" y="168" type="line"/>
      <point x="498" y="102" type="line"/>
      <point x="100" y="102" type="line"/>
    </contour>
    <contour>
      <point x="20" y="708" type="line"/>
      <point x="113" y="708" type="line"/>
      <point x="299" y="342" type="line"/>
      <point x="482" y="708" type="line"/>
      <point x="575" y="708" type="line"/>
      <point x="338" y="269" type="line"/>
      <point x="338" y="0" type="line"/>
      <point x="260" y="0" type="line"/>
      <point x="260" y="271" type="line"/>
    </contour>
  </outline>
</glyph>
<glyph name="section" format="2">
  <advance width="567"/>
  <unicode hex="00A7"/>
  <outline>
    <contour>
      <point x="197" y="768"/>
      <point x="429" y="768"/>
      <point x="524" y="696" type="qcurve"/>
      <point x="487" y="644" type="line"/>
      <point x="414" y="703"/>
      <point x="308" y="703" type="qcurve" smooth="yes"/>
      <point x="292" y="703"/>
      <point x="259" y="700"/>
      <point x="210" y="685"/>
      <point x="173" y="660"/>
      <point x="146" y="612"/>
      <point x="146" y="580" type="qcurve" smooth="yes"/>
      <point x="146" y="522"/>
      <point x="209" y="461"/>
      <point x="291" y="444" type="qcurve" smooth="yes"/>
      <point x="341" y="433" type="line" smooth="yes"/>
      <point x="538" y="391"/>
      <point x="538" y="232" type="qcurve" smooth="yes"/>
      <point x="538" y="148"/>
      <point x="475" y="96" type="qcurve"/>
      <point x="498" y="55"/>
      <point x="498" y="2" type="qcurve" smooth="yes"/>
      <point x="498" y="-83"/>
      <point x="368" y="-191"/>
      <point x="255" y="-191" type="qcurve" smooth="yes"/>
      <point x="120" y="-191"/>
      <point x="18" y="-104" type="qcurve"/>
      <point x="53" y="-43" type="line"/>
      <point x="92" y="-82"/>
      <point x="206" y="-127"/>
      <point x="259" y="-127" type="qcurve" smooth="yes"/>
      <point x="288" y="-127"/>
      <point x="339" y="-117"/>
      <point x="391" y="-92"/>
      <point x="422" y="-38"/>
      <point x="422" y="0" type="qcurve" smooth="yes"/>
      <point x="422" y="51"/>
      <point x="359" y="118"/>
      <point x="269" y="137" type="qcurve" smooth="yes"/>
      <point x="223" y="147" type="line" smooth="yes"/>
      <point x="188" y="153"/>
      <point x="127" y="177"/>
      <point x="65" y="221"/>
      <point x="28" y="298"/>
      <point x="28" y="348" type="qcurve" smooth="yes"/>
      <point x="28" y="430"/>
      <point x="92" y="482" type="qcurve"/>
      <point x="68" y="524"/>
      <point x="68" y="580" type="qcurve" smooth="yes"/>
      <point x="68" y="661"/>
    </contour>
    <contour>
      <point x="137" y="429" type="qcurve"/>
      <point x="106" y="399"/>
      <point x="106" y="350" type="qcurve" smooth="yes"/>
      <point x="106" y="292"/>
      <point x="170" y="230"/>
      <point x="251" y="213" type="qcurve" smooth="yes"/>
      <point x="301" y="202" type="line" smooth="yes"/>
      <point x="381" y="186"/>
      <point x="431" y="147" type="qcurve"/>
      <point x="462" y="178"/>
      <point x="462" y="232" type="qcurve" smooth="yes"/>
      <point x="462" y="283"/>
      <point x="399" y="349"/>
      <point x="309" y="368" type="qcurve" smooth="yes"/>
      <point x="263" y="378" type="line" smooth="yes"/>
      <point x="185" y="392"/>
    </contour>
  </outline>
</glyph>
<glyph name="mu" format="2">
  <advance width="592"/>
  <unicode hex="00B5"/>
  <outline>
    <contour>
      <point x="86" y="519" type="line"/>
      <point x="164" y="519" type="line"/>
      <point x="164" y="128" type="line"/>
      <point x="171" y="115"/>
      <point x="194" y="88"/>
      <point x="258" y="56"/>
      <point x="300" y="56" type="qcurve" smooth="yes"/>
      <point x="356" y="56"/>
      <point x="430" y="135"/>
      <point x="430" y="220" type="qcurve" smooth="yes"/>
      <point x="430" y="519" type="line"/>
      <point x="508" y="519" type="line"/>
      <point x="508" y="102" type="line" smooth="yes"/>
      <point x="508" y="77"/>
      <point x="527" y="57"/>
      <point x="547" y="57" type="qcurve" smooth="yes"/>
      <point x="564" y="57" type="line"/>
      <point x="564" y="0" type="line"/>
      <point x="540" y="-8"/>
      <point x="514" y="-8" type="qcurve" smooth="yes"/>
      <point x="441" y="-8"/>
      <point x="433" y="70" type="qcurve"/>
      <point x="391" y="-8"/>
      <point x="298" y="-8" type="qcurve" smooth="yes"/>
      <point x="203" y="-8"/>
      <point x="153" y="56" type="qcurve"/>
      <point x="164" y="31"/>
      <point x="164" y="4" type="qcurve" smooth="yes"/>
      <point x="164" y="-191" type="line"/>
      <point x="86" y="-191" type="line"/>
    </contour>
  </outline>
</glyph>
<glyph name="AE" format="2">
  <advance width="907"/>
  <unicode hex="00C6"/>
  <outline>
    <contour>
      <point x="372" y="708" type="line"/>
      <point x="854" y="708" type="line"/>
      <point x="854" y="642" type="line"/>
      <point x="494" y="642" type="line"/>
      <point x="494" y="418" type="line"/>
      <point x="776" y="418" type="line"/>
      <point x="776" y="348" type="line"/>
      <point x="494" y="348" type="line"/>
      <point x="494" y="66" type="line"/>
      <point x="854" y="66" type="line"/>
      <point x="854" y="0" type="line"/>
      <point x="418" y="0" type="line"/>
      <point x="418" y="182" type="line"/>
      <point x="204" y="182" type="line"/>
      <point x="118" y="0" type="line"/>
      <point x="36" y="0" type="line"/>
    </contour>
    <contour>
      <point x="418" y="638" type="line"/>
      <point x="235" y="248" type="line"/>
      <point x="418" y="248" type="line"/>
    </contour>
  </outline>
</glyph>
<glyph name="Thorn" format="2">
  <advance width="557"/>
  <unicode hex="00DE"/>
  <outline>
    <contour>
      <point x="86" y="708" type="line"/>
      <point x="166" y="708" type="line"/>
      <point x="166" y="570" type="line"/>
      <point x="288" y="570" type="line" smooth="yes"/>
      <point x="386" y="570"/>
      <point x="504" y="453"/>
      <point x="504" y="356" type="qcurve" smooth="yes"/>
      <point x="504" y="266"/>
      <point x="378" y="148"/>
      <point x="282" y="148" type="qcurve" smooth="yes"/>
      <point x="166" y="148" type="line"/>
      <point x="166" y="0" type="line"/>
      <point x="86" y="0" type="line"/>
    </contour>
    <contour>
      <point x="166" y="506" type="line"/>
      <point x="166" y="214" type="line"/>
      <point x="282" y="214" type="line" smooth="yes"/>
      <point x="348" y="214"/>
      <point x="424" y="290"/>
      <point x="424" y="357" type="qcurve" smooth="yes"/>
      <point x="424" y="427"/>
      <point x="352" y="506"/>
      <point x="288" y="506" type="qcurve" smooth="yes"/>
    </contour>
  </outline>
</glyph>
<glyph name="ae" format="2">
  <advance width="851"/>
  <unicode hex="00E6"/>
  <outline>
    <contour>
      <point x="258" y="528" type="qcurve" smooth="yes"/>
      <point x="372" y="528"/>
      <point x="418" y="452" type="qcurve"/>
      <point x="477" y="528"/>
      <point x="595" y="528" type="qcurve" smooth="yes"/>
      <point x="690" y="528"/>
      <point x="802" y="404"/>
      <point x="802" y="298" type="qcurve" smooth="yes"/>
      <point x="802" y="251"/>
      <point x="796" y="236" type="qcurve"/>
      <point x="444" y="236" type="line"/>
      <point x="444" y="56"/>
      <point x="602" y="56" type="qcurve" smooth="yes"/>
      <point x="655" y="56"/>
      <point x="731" y="86"/>
      <point x="768" y="121" type="qcurve"/>
      <point x="803" y="71" type="line"/>
      <point x="707" y="-8"/>
      <point x="595" y="-8" type="qcurve" smooth="yes"/>
      <point x="471" y="-8"/>
      <point x="410" y="86" type="qcurve"/>
      <point x="326" y="-8"/>
      <point x="204" y="-8" type="qcurve" smooth="yes"/>
      <point x="124" y="-8"/>
      <point x="42" y="72"/>
      <point x="42" y="149" type="qcurve" smooth="yes"/>
      <point x="42" y="225"/>
      <point x="155" y="307"/>
      <point x="262" y="307" type="qcurve" smooth="yes"/>
      <point x="368" y="307" type="line"/>
      <point x="368" y="345" type="line" smooth="yes"/>
      <point x="368" y="464"/>
      <point x="253" y="464" type="qcurve" smooth="yes"/>
      <point x="172" y="464"/>
      <point x="107" y="411" type="qcurve"/>
      <point x="69" y="456" type="line"/>
      <point x="161" y="528"/>
    </contour>
    <contour>
      <point x="368" y="245" type="line"/>
      <point x="259" y="245" type="line" smooth="yes"/>
      <point x="186" y="245"/>
      <point x="122" y="198"/>
      <point x="122" y="148" type="qcurve" smooth="yes"/>
      <point x="122" y="56"/>
      <point x="232" y="56" type="qcurve" smooth="yes"/>
      <point x="270" y="56"/>
      <point x="348" y="100"/>
      <point x="368" y="129" type="qcurve"/>
    </contour>
    <contour>
      <point x="584" y="464" type="qcurve" smooth="yes"/>
      <point x="444" y="464"/>
      <point x="444" y="295" type="qcurve"/>
      <point x="727" y="295" type="line"/>
      <point x="727" y="318" type="line" smooth="yes"/>
      <point x="727" y="389"/>
      <point x="653" y="464"/>
    </contour>
  </outline>
</glyph>
<glyph name="eth" format="2">
  <advance width="600"/>
  <unicode hex="00F0"/>
  <outline>
    <contour>
      <point x="188" y="716" type="qcurve"/>
      <point x="293" y="716" type="line"/>
      <point x="338" y="688"/>
      <point x="359" y="667" type="qcurve"/>
      <point x="466" y="709" type="line"/>
      <point x="466" y="647" type="line"/>
      <point x="404" y="623" type="line"/>
      <point x="544" y="477"/>
      <point x="544" y="261" type="qcurve" smooth="yes"/>
      <point x="544" y="142"/>
      <point x="409" y="-7"/>
      <point x="302" y="-7" type="qcurve" smooth="yes"/>
      <point x="188" y="-7"/>
      <point x="56" y="144"/>
      <point x="56" y="275" type="qcurve" smooth="yes"/>
      <point x="56" y="383"/>
      <point x="188" y="528"/>
      <point x="287" y="528" type="qcurve" smooth="yes"/>
      <point x="370" y="528"/>
      <point x="426" y="474" type="qcurve"/>
      <point x="401" y="531"/>
      <point x="337" y="596" type="qcurve"/>
      <point x="203" y="543" type="line"/>
      <point x="201" y="605" type="line"/>
      <point x="291" y="640" type="line"/>
      <point x="236" y="690"/>
    </contour>
    <contour>
      <point x="299" y="463" type="qcurve" smooth="yes"/>
      <point x="222" y="463"/>
      <point x="132" y="357"/>
      <point x="132" y="267" type="qcurve" smooth="yes"/>
      <point x="132" y="167"/>
      <point x="221" y="58"/>
      <point x="303" y="58" type="qcurve" smooth="yes"/>
      <point x="378" y="58"/>
      <point x="468" y="166"/>
      <point x="468" y="256" type="qcurve" smooth="yes"/>
      <point x="468" y="357"/>
      <point x="434" y="412" type="qcurve"/>
      <point x="371" y="463"/>
    </contour>
  </outline>
</glyph>
<glyph name="oslash" format="2">
  <advance width="548"/>
  <unicode hex="00F8"/>
  <outline>
    <contour>
      <point x="434" y="520" type="line"/>
      <point x="528" y="520" type="line"/>
      <point x="128" y="0" type="line"/>
      <point x="34" y="0" type="line"/>
    </contour>
    <contour>
      <point x="274" y="464" type="qcurve" smooth="yes"/>
      <point x="199" y="464"/>
      <point x="119" y="358"/>
      <point x="119" y="258" type="qcurve" smooth="yes"/>
      <point x="119" y="159"/>
      <point x="197" y="56"/>
      <point x="272" y="56" type="qcurve" smooth="yes"/>
      <point x="348" y="56"/>
      <point x="428" y="161"/>
      <point x="428" y="359"/>
      <point x="348" y="464"/>
    </contour>
    <contour>
      <point x="274" y="528" type="qcurve" smooth="yes"/>
      <point x="383" y="528"/>
      <point x="508" y="383"/>
      <point x="508" y="257" type="qcurve" smooth="yes"/>
      <point x="508" y="138"/>
      <point x="378" y="-8"/>
      <point x="166" y="-8"/>
      <point x="40" y="137"/>
      <point x="40" y="259" type="qcurve" smooth="yes"/>
      <point x="40" y="384"/>
      <point x="165" y="528"/>
    </contour>
  </outline>
</glyph>
<glyph name="thorn" format="2">
  <advance width="607"/>
  <unicode hex="00FE"/>
  <outline>
    <contour>
      <point x="80" y="708" type="line"/>
      <point x="160" y="708" type="line"/>
      <point x="160" y="430" type="line"/>
      <point x="241" y="528"/>
      <point x="332" y="528" type="qcurve" smooth="yes"/>
      <point x="434" y="528"/>
      <point x="542" y="390"/>
      <point x="542" y="260" type="qcurve" smooth="yes"/>
      <point x="542" y="137"/>
      <point x="429" y="-8"/>
      <point x="332" y="-8" type="qcurve" smooth="yes"/>
      <point x="314" y="-8"/>
      <point x="270" y="-2"/>
      <point x="186" y="41"/>
      <point x="160" y="78" type="qcurve"/>
      <point x="160" y="-192" type="line"/>
      <point x="80" y="-192" type="line"/>
    </contour>
    <contour>
      <point x="308" y="464" type="qcurve" smooth="yes"/>
      <point x="212" y="464"/>
      <point x="160" y="372" type="qcurve"/>
      <point x="160" y="155" type="line"/>
      <point x="188" y="103"/>
      <point x="259" y="56"/>
      <point x="308" y="56" type="qcurve" smooth="yes"/>
      <point x="381" y="56"/>
      <point x="462" y="165"/>
      <point x="462" y="263" type="qcurve" smooth="yes"/>
      <point x="462" y="366"/>
      <point x="387" y="464"/>
    </contour>
  </outline>
</glyph>
<glyph name="dotlessi" format="2">
  <advance width="313"/>
  <unicode hex="0131"/>
  <outline>
    <contour>
      <point x="30" y="520" type="line"/>
      <point x="212" y="520" type="line"/>
      <point x="212" y="0" type="line"/>
      <point x="132" y="0" type="line"/>
      <point x="132" y="455" type="line"/>
      <point x="30" y="455" type="line"/>
    </contour>
  </outline>
</glyph>
<glyph name="gravecomb" format="2">
  <unicode hex="0300"/>
  <outline>
    <contour>
      <point x="-81" y="931" type="line"/>
      <point x="128" y="796" type="line"/>
      <point x="91" y="744" type="line"/>
      <point x="-127" y="867" type="line"/>
    </contour>
  </outline>
</glyph>
<glyph name="uni0302" format="2">
  <unicode hex="0302"/>
  <outline>
    <contour>
      <point x="-34" y="930" type="line"/>
      <point x="34" y="930" type="line"/>
      <point x="167" y="795" type="line"/>
      <point x="123" y="744" type="line"/>
      <point x="0" y="864" type="line"/>
      <point x="-123" y="744" type="line"/>
      <point x="-167" y="795" type="line"/>
    </contour>
  </outline>
</glyph>
<glyph name="tildecomb" format="2">
  <unicode hex="0303"/>
  <outline>
    <contour>
      <point x="-73" y="909" type="qcurve" smooth="yes"/>
      <point x="-37" y="909"/>
      <point x="44" y="846"/>
      <point x="60" y="846" type="qcurve" smooth="yes"/>
      <point x="106" y="846"/>
      <point x="108" y="905" type="qcurve"/>
      <point x="180" y="905" type="line"/>
      <point x="180" y="843"/>
      <point x="113" y="782"/>
      <point x="58" y="782" type="qcurve" smooth="yes"/>
      <point x="27" y="782"/>
      <point x="-18" y="813"/>
      <point x="-53" y="844"/>
      <point x="-70" y="844" type="qcurve" smooth="yes"/>
      <point x="-121" y="844"/>
      <point x="-121" y="786" type="qcurve"/>
      <point x="-193" y="786" type="line"/>
      <point x="-193" y="846"/>
      <point x="-142" y="909"/>
    </contour>
  </outline>
</glyph>
<glyph name="uni0308" format="2">
  <unicode hex="0308"/>
  <outline>
    <contour>
      <point x="-104" y="909" type="qcurve" smooth="yes"/>
      <point x="-82" y="909"/>
      <point x="-50" y="878"/>
      <point x="-50" y="854" type="qcurve" smooth="yes"/>
      <point x="-50" y="832"/>
      <point x="-82" y="800"/>
      <point x="-104" y="800" type="qcurve" smooth="yes"/>
      <point x="-127" y="800"/>
      <point x="-160" y="832"/>
      <point x="-160" y="876"/>
      <point x="-128" y="909"/>
    </contour>
    <contour>
      <point x="104" y="909" type="qcurve" smooth="yes"/>
      <point x="128" y="909"/>
      <point x="160" y="876"/>
      <point x="160" y="832"/>
      <point x="127" y="800"/>
      <point x="104" y="800" type="qcurve" smooth="yes"/>
      <point x="82" y="800"/>
      <point x="50" y="832"/>
      <point x="50" y="854" type="qcurve" smooth="yes"/>
      <point x="50" y="878"/>
      <point x="82" y="909"/>
    </contour>
  </outline>
</glyph>
<glyph name="uni030A" format="2">
  <unicode hex="030A"/>
  <outline>
    <contour>
      <point x="-42" y="937"/>
      <point x="42" y="937"/>
      <point x="100" y="883"/>
      <point x="100" y="797"/>
      <point x="42" y="743"/>
      <point x="-42" y="743"/>
      <point x="-100" y="797"/>
      <point x="-100" y="883"/>
    </contour>
    <contour>
      <point x="20" y="883"/>
      <point x="-20" y="883"/>
      <point x="-46" y="859"/>
      <point x="-46" y="821"/>
      <point x="-20" y="797"/>
      <point x="20" y="797"/>
      <point x="46" y="821"/>
      <point x="46" y="859"/>
    </contour>
  </outline>
</glyph>
<glyph name="uni0327" format="2">
  <unicode hex="0327"/>
  <outline>
    <contour>
      <point x="-38" y="0" type="line"/>
      <point x="38" y="0" type="line"/>
      <point x="38" y="-105" type="line" smooth="yes"/>
      <point x="38" y="-115"/>
      <point x="35" y="-137"/>
      <point x="21" y="-174"/>
      <point x="-4" y="-203"/>
      <point x="-55" y="-224"/>
      <point x="-89" y="-224" type="qcurve" smooth="yes"/>
      <point x="-113" y="-224"/>
      <point x="-137" y="-216" type="qcurve"/>
      <point x="-124" y="-163" type="line"/>
      <point x="-91" y="-163" type="line" smooth="yes"/>
      <point x="-38" y="-163"/>
      <point x="-38" y="-106" type="qcurve" smooth="yes"/>
    </contour>
  </outline>
</glyph>
<glyph name="Euro" format="2">
  <advance width="672"/>
  <unicode hex="20AC"/>
  <outline>
    <contour>
      <point x="410" y="716" type="qcurve" smooth="yes"/>
      <point x="483" y="716"/>
      <point x="586" y="680"/>
      <point x="635" y="634" type="qcurve"/>
      <point x="603" y="582" type="line"/>
      <point x="554" y="626"/>
      <point x="471" y="650"/>
      <point x="411" y="650" type="qcurve" smooth="yes"/>
      <point x="388" y="650"/>
      <point x="340" y="639"/>
      <point x="276" y="610"/>
      <point x="220" y="542"/>
      <point x="204" y="492" type="qcurve"/>
      <point x="513" y="492" type="line"/>
      <point x="489" y="422" type="line"/>
      <point x="188" y="422" type="line"/>
      <point x="184" y="393"/>
      <point x="184" y="352" type="qcurve" smooth="yes"/>
      <point x="184" y="334"/>
      <point x="186" y="302" type="qcurve"/>
      <point x="447" y="302" type="line"/>
      <point x="425" y="232" type="line"/>
      <point x="198" y="232" type="line"/>
      <point x="202" y="216"/>
      <point x="212" y="186"/>
      <point x="245" y="129"/>
      <point x="286" y="89"/>
      <point x="359" y="58"/>
      <point x="403" y="58" type="qcurve" smooth="yes"/>
      <point x="522" y="58"/>
      <point x="613" y="126" type="qcurve"/>
      <point x="637" y="68" type="line"/>
      <point x="527" y="-8"/>
      <point x="402" y="-8" type="qcurve" smooth="yes"/>
      <point x="380" y="-8"/>
      <point x="332" y="-1"/>
      <point x="255" y="27"/>
      <point x="192" y="75"/>
      <point x="132" y="169"/>
      <point x="118" y="232" type="qcurve"/>
      <point x="30" y="232" type="line"/>
      <point x="30" y="302" type="line"/>
      <point x="108" y="302" type="line"/>
      <point x="106" y="334"/>
      <point x="106" y="352" type="qcurve" smooth="yes"/>
      <point x="106" y="393"/>
      <point x="110" y="422" type="qcurve"/>
      <point x="30" y="422" type="line"/>
      <point x="30" y="492" type="line"/>
      <point x="123" y="492" type="line"/>
      <point x="129" y="513"/>
      <point x="147" y="558"/>
      <point x="193" y="627"/>
      <point x="252" y="678"/>
      <point x="351" y="716"/>
    </contour>
  </outline>
</glyph>
